<?xml version="1.0" encoding="UTF-8"?>
<svg version="1.1" xmlns="http://www.w3.org/2000/svg" width="1619" height="971">
<path d="M0 0 C534.27 0 1068.54 0 1619 0 C1619 320.43 1619 640.86 1619 971 C1084.73 971 550.46 971 0 971 C0 650.57 0 330.14 0 0 Z " fill="#FDFDFD" transform="translate(0,0)"/>
<path d="M0 0 C7.95270483 0.5368125 15.58345764 1.78618141 23.375 3.4375 C30.02834673 4.81820844 36.63740781 6.17171257 43.375 7.0625 C48.27911254 7.75469165 52.51767147 9.18077927 57.11328125 10.9921875 C61.46610567 12.51184745 65.92207165 13.33465122 70.4453125 14.19140625 C74.74903573 15.17038505 78.83143842 16.56425018 83 18 C84.46388533 18.47949845 85.92872267 18.95610093 87.39453125 19.4296875 C88.8671875 19.91145833 90.33984375 20.39322917 91.8125 20.875 C92.52986328 21.10574219 93.24722656 21.33648437 93.98632812 21.57421875 C126.56760557 32.29136718 159.34776774 48.60763474 187 69 C187.91523437 69.66128906 188.83046875 70.32257813 189.7734375 71.00390625 C200.72120257 79.03514073 210.86857003 87.96032801 220.875 97.125 C221.79514893 97.9598291 221.79514893 97.9598291 222.73388672 98.81152344 C224.19568749 100.1659936 225.60363264 101.57816698 227 103 C227 103.66 227 104.32 227 105 C227.99 105.33 228.98 105.66 230 106 C264.00263566 138.06226787 287.75169343 189.6549863 296 235 C296.36931641 236.65902344 296.36931641 236.65902344 296.74609375 238.3515625 C303.77390093 271.62445749 303.1806583 306.27250635 300.6875 340 C300.62882751 340.82065948 300.57015503 341.64131897 300.50970459 342.48684692 C299.87897264 351.05985326 298.97671617 359.19471822 296.67114258 367.51025391 C295.80857206 370.71014266 295.37725266 373.89832833 295 377.1875 C294.36998969 381.95162752 293.4350524 386.14151679 291.7734375 390.6328125 C290.83162602 393.51532644 290.27164081 396.39931798 289.6875 399.375 C287.833683 408.46468334 284.89939877 417.19858884 282 426 C282.7425 425.505 283.485 425.01 284.25 424.5 C287 423 287 423 291 423 C291 422.34 291 421.68 291 421 C292.56234375 420.30777344 292.56234375 420.30777344 294.15625 419.6015625 C313.05227912 411.0680153 328.81636162 400.13130701 344 386 C345.01707031 385.06414062 345.01707031 385.06414062 346.0546875 384.109375 C356.11616653 374.49237898 363.74658555 362.79019427 371 351 C371.60585938 350.02546875 372.21171875 349.0509375 372.8359375 348.046875 C376.60645373 341.80249066 379.75781136 335.38272538 382.81323242 328.77246094 C391.31339498 310.47437021 400.83420992 292.39727993 414 277 C414.5259375 276.3296875 415.051875 275.659375 415.59375 274.96875 C419.13694113 270.59186684 423.13095741 267.12224236 427.5625 263.6875 C428.10479248 263.26662109 428.64708496 262.84574219 429.20581055 262.41210938 C434.32117148 258.55988668 439.62163037 256.02268435 445.625 253.875 C446.54539062 253.54242188 447.46578125 253.20984375 448.4140625 252.8671875 C453.78222436 251.06698821 458.4921983 250.80813898 464.125 250.8125 C464.97360596 250.81185547 465.82221191 250.81121094 466.6965332 250.81054688 C472.6999289 250.86113567 478.17276554 251.47154506 484 253 C483.17757813 252.22398437 482.35515625 251.44796875 481.5078125 250.6484375 C471.56098655 241.09379641 463.72484384 231.07044076 457.0625 219 C445.65225789 198.48461519 428.17315674 181.40466786 405.453125 174.19140625 C391.60602053 170.91063803 378.66904087 172.82026681 366.5 180.0625 C358.3654059 185.5521755 350.8539631 192.09996235 345.25 200.1875 C342.60541621 203.79551407 342.60541621 203.79551407 339.94140625 204.6953125 C336.56039989 204.88142294 334.31635049 204.20562782 331.5 202.375 C329.54731574 199.28324992 329.61763487 197.61913039 330 194 C332.49290602 189.92945781 335.78716907 186.51972821 339 183 C339.78117187 182.13632813 340.56234375 181.27265625 341.3671875 180.3828125 C354.36035684 166.70803427 370.73076116 157.1601902 389.86621094 156.41625977 C414.40090111 156.06523008 433.66281692 168.15391674 451.0625 184.75 C459.08377226 193.08040851 465.29106986 202.2600986 471.125 212.1875 C479.65258415 226.69218695 489.91447403 238.13372433 503.0859375 248.65234375 C505.69568606 250.75483555 508.24823629 252.9052144 510.79052734 255.08764648 C517.31893112 260.68604788 524.03979546 265.94453087 531 271 C531.67724121 271.49258301 532.35448242 271.98516602 533.05224609 272.49267578 C542.99595998 279.71587745 552.98921759 286.87013407 563 294 C559.46642126 295.17785958 558.96979939 294.82031502 555.6875 293.375 C550.48855547 291.17282699 545.2180252 289.28623281 539.8828125 287.44140625 C536.64649897 286.28394097 533.50364167 284.94499564 530.34375 283.59375 C524.12645287 280.98457603 517.82440382 278.89187954 511.375 276.9375 C510.25287109 276.59388428 509.13074219 276.25026855 507.97460938 275.89624023 C499.79304739 273.43441244 491.59051401 271.38442542 483.21875 269.69140625 C480 269 480 269 478 268 C464.22476013 266.80494808 449.79894093 266.69853487 438.25 275.1875 C436.81095097 276.43293153 435.39405859 277.70440652 434 279 C433.28585937 279.62390625 432.57171875 280.2478125 431.8359375 280.890625 C415.89757667 295.64628061 406.38049204 316.97846346 396.93457031 336.15966797 C380.26091748 369.82530446 358.93243643 399.2495185 327 420 C326.36143066 420.41926758 325.72286133 420.83853516 325.06494141 421.27050781 C311.91124248 429.80917702 293.58437696 441.4288532 277.8046875 443.25390625 C275.6998563 443.89427258 275.6998563 443.89427258 274.69140625 446.58984375 C274.31886719 447.69457031 273.94632813 448.79929687 273.5625 449.9375 C272.10772397 454.01883213 270.64461259 457.91604691 268.625 461.75 C266.29265654 466.22458997 264.42900266 470.81902649 262.5625 475.5 C260.28173451 481.17056089 257.82041523 486.40169859 254.51953125 491.56640625 C252.76644453 494.37404899 251.23126384 497.25967204 249.6875 500.1875 C239.86911926 518.50091451 228.45792601 536.13246438 215 552 C214.55446777 552.53286621 214.10893555 553.06573242 213.64990234 553.61474609 C196.9892953 573.53611116 172.36005673 599.55075444 144.58081055 602.23364258 C125.62694399 603.21488643 113.54935515 599.2516748 99.21875 586.53125 C80.89452558 569.03058623 71.09656934 547.58433486 66 523 C65.73147217 521.72108887 65.46294434 520.44217773 65.1862793 519.12451172 C63.12479349 508.78510054 62.47976311 498.77733112 62.5625 488.25 C62.56454437 487.45784088 62.56658875 486.66568176 62.56869507 485.84951782 C62.63338072 470.30534218 64.27767839 455.31461288 67 440 C67.15968262 439.0821875 67.31936523 438.164375 67.48388672 437.21875 C68.25958695 432.7986905 69.08658543 428.39407765 70 424 C73.72342415 422.75885862 74.94239299 423.41392413 78.6171875 424.66015625 C79.76670898 425.03897949 80.91623047 425.41780273 82.10058594 425.80810547 C83.9689209 426.42903076 83.9689209 426.42903076 85.875 427.0625 C96.06802373 430.35432436 106.25132554 433.19490417 116.75 435.375 C117.80944824 435.6006665 118.86889648 435.82633301 119.96044922 436.05883789 C139.70331029 439.99121537 159.47725964 441.50332883 179.58398438 441.39111328 C182.9991038 441.37500423 186.41304043 441.39109668 189.828125 441.41015625 C210.07175627 441.43047226 230.06921164 439.51807546 249.875 435.25 C251.59976563 434.92902344 251.59976563 434.92902344 253.359375 434.6015625 C259.78022897 433.37866724 259.78022897 433.37866724 264.09765625 428.84375 C264.39542969 427.5753125 264.69320313 426.306875 265 425 C265.43269962 423.56585296 265.87173686 422.13360598 266.31640625 420.703125 C266.95149003 418.45955801 267.57285737 416.2124826 268.19335938 413.96484375 C269.15402537 410.57390358 270.02939517 407.95590724 272 405 C272.57013705 402.41157781 273.06645158 399.86081904 273.5 397.25 C274.38389885 392.04373863 275.53934181 387.08377518 277 382 C277.52951259 379.35508463 278.03393001 376.7180746 278.5 374.0625 C279.20503192 370.06861041 279.95886151 366.15629385 280.9921875 362.23046875 C285.90205466 342.88793016 285.27896298 322.10014657 285.25 302.3125 C285.24913391 301.19629272 285.24826782 300.08008545 285.24737549 298.93005371 C285.22604435 288.26722487 285.12926683 277.60835257 284.6015625 266.95703125 C284.57064514 266.26797195 284.53972778 265.57891266 284.50787354 264.86897278 C284.1342722 258.42871935 282.65185855 252.35258611 281.03125 246.13671875 C280.01117979 242.18487065 279.3033301 238.21306612 278.625 234.1875 C276.25074049 221.12258566 272.32769128 208.16622039 267 196 C266.35804688 194.44539063 266.35804688 194.44539063 265.703125 192.859375 C256.8631919 171.66254618 246.05411006 151.22498713 231.28173828 133.54199219 C230.02132521 132.02565525 228.78963459 130.4855908 227.55859375 128.9453125 C223.80338062 124.25606158 219.98286734 119.81983731 215.65234375 115.65625 C213.95611227 113.95600852 212.461791 112.16749753 210.9375 110.3125 C192.45778259 88.93886711 165.46358995 73.34693026 141 60 C139.98486328 59.4438501 139.98486328 59.4438501 138.94921875 58.87646484 C126.75266543 52.27631138 113.82217544 47.33721074 100.95581055 42.21508789 C98.47575959 41.19557739 96.06768239 40.10212015 93.6484375 38.94921875 C87.22493969 36.05319365 80.3427476 34.40958913 73.5625 32.5625 C72.12465497 32.16520985 70.68699306 31.7672564 69.24951172 31.36865234 C66.43543657 30.58946578 63.62040375 29.8139354 60.80419922 29.04248047 C56.81389001 27.94899951 52.82607091 26.84687749 48.83959961 25.73950195 C47.38653653 25.33630939 45.93293835 24.93503927 44.47875977 24.53588867 C40.95423312 23.56504296 37.47342206 22.51344602 34 21.375 C26.55432693 19.0728926 18.68538529 18.180435 11 17 C10.9498877 17.71953857 10.89977539 18.43907715 10.84814453 19.18041992 C10.6126168 22.51652869 10.36883988 25.85198887 10.125 29.1875 C10.00705078 30.88422852 10.00705078 30.88422852 9.88671875 32.61523438 C9.48342663 38.05967803 8.96457351 43.36079634 7.953125 48.7265625 C6.17798158 59.75923692 6.60735439 71.04508867 6.625 82.1875 C6.62521149 83.41042755 6.62542297 84.6333551 6.62564087 85.89334106 C6.68451464 120.0141816 10.31951325 153.42787877 21 186 C21.24443848 186.75635742 21.48887695 187.51271484 21.74072266 188.29199219 C37.71655627 237.27119367 67.36812563 287.48651557 110 318 C110.93344238 318.67554932 110.93344238 318.67554932 111.88574219 319.36474609 C131.43379165 333.48882356 151.97623706 347.29519744 175 355 C175 355.66 175 356.32 175 357 C175.55034912 357.11174561 176.10069824 357.22349121 176.66772461 357.33862305 C182.111964 358.48949903 187.30902922 359.98962735 192.5625 361.8125 C197.22858248 363.40942439 201.89056703 364.98874368 206.6171875 366.3984375 C207.70858032 366.72557739 207.70858032 366.72557739 208.82202148 367.05932617 C210.19944634 367.46834108 211.57910176 367.86994123 212.96118164 368.26293945 C218.96445147 370.05650896 218.96445147 370.05650896 221 373 C221.49125459 376.85985753 221.56021138 379.08965651 219.5 382.4375 C215.59649088 384.8771932 211.34745241 384.46976994 206.94921875 383.58959961 C204.86192666 383.03082669 202.80796736 382.40847343 200.75 381.75 C200.00983643 381.52183594 199.26967285 381.29367187 198.50708008 381.05859375 C196.33409954 380.38426107 194.16678268 379.69394703 192 379 C190.89527344 378.65453125 189.79054688 378.3090625 188.65234375 377.953125 C181.59365116 375.68392738 174.79298514 372.96434954 168 370 C167.2884375 369.69465332 166.576875 369.38930664 165.84375 369.07470703 C142.23500197 358.91802689 119.74609077 346.58402513 100 330 C99.08863281 329.27167969 98.17726563 328.54335938 97.23828125 327.79296875 C92.16085757 323.72687366 87.40787642 319.5544372 82.8828125 314.8828125 C81.05815709 313.05815709 79.1644283 311.40677797 77.1875 309.75 C66.86004276 300.78882115 58.61234721 289.95754232 50.50634766 279.02392578 C49.1798329 277.24162314 47.83424203 275.47643918 46.48046875 273.71484375 C33.51967474 256.36930351 23.27148362 236.96472106 15 217 C14.44572581 215.70034449 13.89105981 214.40085598 13.3359375 213.1015625 C-12.49682055 150.9704675 -14.51051929 80.58810378 -4 15 C-3.835 13.89043945 -3.67 12.78087891 -3.5 11.63769531 C-3.335 10.56358398 -3.17 9.48947266 -3 8.3828125 C-2.7834375 6.93865967 -2.7834375 6.93865967 -2.5625 5.46533203 C-2 3 -2 3 0 0 Z " fill="#090908" transform="translate(549,61)"/>
<path d="M0 0 C2.02244692 0.25850825 4.04292385 0.53244604 6.0625 0.8125 C7.18785156 0.96332031 8.31320312 1.11414063 9.47265625 1.26953125 C13 2 13 2 16.00390625 3.4140625 C21.90099668 6.09664443 28.52353952 6.60134979 34.875 7.5625 C36.2806542 7.78122077 37.68625298 8.00029806 39.09179688 8.21972656 C48.69560901 9.70596106 58.31236603 11.18254963 68 12 C68.96204346 12.08540039 69.92408691 12.17080078 70.9152832 12.25878906 C82.21075829 13.14334104 93.4974353 13.22043674 104.82250977 13.24023438 C108.1638284 13.2499313 111.50452807 13.28105133 114.84570312 13.3125 C132.06292676 13.39678579 148.3204385 11.55960011 165.0546875 7.55078125 C168.10276125 6.98078337 170.90647623 6.90303881 174 7 C172.50256489 12.03682719 170.3581787 16.67436323 168.12109375 21.4140625 C167.16271031 23.6246891 166.49100727 25.64978541 166 28 C165.34 28 164.68 28 164 28 C163.91234375 28.8353125 163.8246875 29.670625 163.734375 30.53125 C162.87358443 34.59711183 161.23019011 37.89288708 159.25 41.5 C158.85731934 42.22630615 158.46463867 42.9526123 158.06005859 43.70092773 C146.4699841 64.91526117 133.86147778 84.79448109 118.36206055 103.35302734 C117.14283288 104.82728973 115.9558522 106.32808272 114.7734375 107.83203125 C112.75312026 110.30180233 110.51206604 112.03936309 108 114 C107.278125 114.721875 106.55625 115.44375 105.8125 116.1875 C91.6747125 130.3252875 74.11270954 143.76939479 53.3125 144.375 C40.70911603 144.24357785 32.20611308 136.96088673 23.4296875 128.53125 C16.84013013 121.67972246 12.25630446 114.41717609 8 106 C7.52820313 105.06929687 7.05640625 104.13859375 6.5703125 103.1796875 C-7.47430848 72.5606691 -7.75090335 32.31128114 0 0 Z " fill="#FCFBFC" transform="translate(631,504)"/>
<path d="M0 0 C1.80229007 2.7394809 2.63763039 5.23044332 3.5625 8.375 C4.0575 9.53 4.5525 10.685 5.0625 11.875 C9.11655405 21.33445946 9.11655405 21.33445946 7.5625 25.375 C8.5525 25.705 9.5425 26.035 10.5625 26.375 C10.5625 27.695 10.5625 29.015 10.5625 30.375 C11.614375 30.25125 11.614375 30.25125 12.6875 30.125 C17.00370758 30.5003224 18.56112336 31.16422499 21.5625 34.375 C22.56848982 41.4781629 21.88839827 47.64114937 19.5625 54.375 C19.5625 55.695 19.5625 57.015 19.5625 58.375 C19.5625 59.035 19.5625 59.695 19.5625 60.375 C16.5439819 63.17790967 14.2439925 65.08877315 10.4375 66.6875 C7.10189253 68.64535656 6.40007553 70.43517934 4.859375 73.8828125 C0.55204272 82.16015586 -6.15761163 89.35435658 -12.6875 95.9375 C-13.17025391 96.42573242 -13.65300781 96.91396484 -14.15039062 97.41699219 C-18.10995278 101.29801309 -22.13865664 104.60871888 -27.4375 106.375 C-27.7675 107.035 -28.0975 107.695 -28.4375 108.375 C-35.04228512 108.02737973 -38.38508334 106.6906059 -43.4375 102.375 C-43.4375 101.715 -43.4375 101.055 -43.4375 100.375 C-44.076875 100.16875 -44.71625 99.9625 -45.375 99.75 C-47.4375 98.375 -47.4375 98.375 -48.0625 95.625 C-48.18625 94.5525 -48.31 93.48 -48.4375 92.375 C-48.9634375 91.0446875 -48.9634375 91.0446875 -49.5 89.6875 C-51.81098859 81.52200699 -50.3417622 72.23910694 -49.625 63.875 C-49.55474609 62.91980469 -49.48449219 61.96460938 -49.41210938 60.98046875 C-48.75501915 53.21103398 -47.83604026 44.97281039 -43.4375 38.375 C-42.76491333 36.04336622 -42.09902556 33.7097961 -41.4375 31.375 C-38.38204046 23.37260596 -34.46763129 17.05891291 -28.2734375 11.17578125 C-25.67423702 8.6263527 -23.35730988 5.85907296 -21.015625 3.07421875 C-16.16646917 -2.14702577 -6.09259592 -4.06173061 0 0 Z " fill="#0A0A0A" transform="translate(739.4375,733.625)"/>
<path d="M0 0 C0 0.99 0 1.98 0 3 C1.03125 3.12375 2.0625 3.2475 3.125 3.375 C7 4 7 4 9.87475586 4.99023438 C12.940626 5.98081628 15.68131606 6.44827131 18.87890625 6.78125 C20.50795898 6.96107422 20.50795898 6.96107422 22.16992188 7.14453125 C24.43550449 7.38191527 26.70112971 7.61889306 28.96679688 7.85546875 C30.59391602 8.03529297 30.59391602 8.03529297 32.25390625 8.21875 C33.23689697 8.32123047 34.2198877 8.42371094 35.23266602 8.52929688 C38.05052994 9.00859477 40.39460306 9.84244196 43 11 C43.60715581 15.16335409 43.85907924 18.58761549 41.6171875 22.2734375 C38.39362325 26.02728505 35.24940236 28.48159462 31 31 C29.44013281 32.24842613 27.89894059 33.52046341 26.375 34.8125 C21.92870484 38.43763254 17.35534982 41.17725109 12.25 43.7734375 C9.8881073 44.92362621 9.8881073 44.92362621 8 47 C6.01643517 47.71408334 4.01684563 48.38617742 2 49 C1.2686893 61.91982235 5.83899067 69.91615106 13.6159668 79.89404297 C14.1912915 80.64057129 14.76661621 81.38709961 15.359375 82.15625 C15.89014648 82.82462891 16.42091797 83.49300781 16.96777344 84.18164062 C17.3084082 84.78169922 17.64904297 85.38175781 18 86 C17.505 87.485 17.505 87.485 17 89 C18.3303125 89.37125 18.3303125 89.37125 19.6875 89.75 C23 91 23 91 25.125 93 C28.31651336 95.22018321 30.01309055 95.40782042 33.8125 95.875 C39.85699266 96.70229801 43.71047997 98.67748366 48 103 C50 106 50 106 50 109 C46.8775204 110.85861881 44.80400691 112.03495682 41.125 111.875 C33.30408783 109.68514459 28.17020744 106.83554562 21.6875 101.9375 C17.41462717 98.8570568 13.00682209 96.6689407 8 95 C8 94.34 8 93.68 8 93 C6.68 93 5.36 93 4 93 C3.5875 92.4225 3.175 91.845 2.75 91.25 C0.17831728 87.94355079 -3.23340015 86.68199708 -7 85 C-7 84.01 -7 83.02 -7 82 C-7.61875 81.896875 -8.2375 81.79375 -8.875 81.6875 C-11 81 -11 81 -13 78 C-13 77.01 -13 76.02 -13 75 C-13.66 75 -14.32 75 -15 75 C-14.67 72.69 -14.34 70.38 -14 68 C-15.32 67.67 -16.64 67.34 -18 67 C-18 66.01 -18 65.02 -18 64 C-19.65 64 -21.3 64 -23 64 C-23.18175781 65.37671875 -23.18175781 65.37671875 -23.3671875 66.78125 C-23.53476562 68.0084375 -23.70234375 69.235625 -23.875 70.5 C-24.03742187 71.7065625 -24.19984375 72.913125 -24.3671875 74.15625 C-24.81052528 76.84911655 -25.31446657 79.33281765 -26.0078125 81.953125 C-27.06729669 86.02912756 -27.57357989 90.06662998 -28 94.25 C-28.16607766 95.73849346 -28.33405917 97.22677569 -28.50390625 98.71484375 C-28.58656738 99.43913574 -28.66922852 100.16342773 -28.75439453 100.90966797 C-29.1039674 103.88485969 -29.49756605 106.84930849 -29.9375 109.8125 C-30.07027344 110.72644531 -30.20304688 111.64039063 -30.33984375 112.58203125 C-31.08385164 115.30712525 -32.29660569 116.77587894 -34 119 C-34.70276664 121.27391853 -34.70276664 121.27391853 -35.1875 123.6875 C-36.84963431 129.7015666 -40.3502047 133.91291878 -45 138 C-45.66 138 -46.32 138 -47 138 C-47.061875 138.9075 -47.12375 139.815 -47.1875 140.75 C-48 144 -48 144 -50.1875 146.375 C-53.41971069 148.24249951 -55.32823991 148.34155908 -59 148 C-59 146.68 -59 145.36 -59 144 C-59.66 144 -60.32 144 -61 144 C-61.97962798 140.08148809 -62.59073859 137.4881585 -61.08203125 133.6875 C-59.5599851 131.29997663 -58.28466815 129.68390129 -56 128 C-52.56170148 127.34605912 -49.4524079 127.50874828 -46 128 C-45.71125 126.948125 -45.4225 125.89625 -45.125 124.8125 C-44 121 -44 121 -43.02734375 118.73828125 C-41.75647422 115.35090658 -41.0917847 111.91990759 -40.4375 108.375 C-39.1133592 101.34007761 -39.1133592 101.34007761 -38 98 C-37.70052739 95.39625201 -37.49325474 92.79188871 -37.28125 90.1796875 C-37 88 -37 88 -36 87 C-35.67052479 85.23581004 -35.38750901 83.46288986 -35.125 81.6875 C-34.12078064 75.35026724 -32.6481986 69.19722674 -31 63 C-30.34 63 -29.68 63 -29 63 C-28.90912109 61.71802734 -28.90912109 61.71802734 -28.81640625 60.41015625 C-28.73261719 59.30542969 -28.64882813 58.20070313 -28.5625 57.0625 C-28.48128906 55.96035156 -28.40007813 54.85820313 -28.31640625 53.72265625 C-28 51 -28 51 -27 50 C-26.71247561 48.21676795 -26.49409786 46.4221113 -26.3125 44.625 C-26.20550781 43.64789062 -26.09851563 42.67078125 -25.98828125 41.6640625 C-25.75634829 38.76852317 -25.75634829 38.76852317 -28 36 C-28 35.01 -28 34.02 -28 33 C-30.62901288 34.52206009 -32.84365964 35.84365964 -35 38 C-38.125 38.125 -38.125 38.125 -41 38 C-41.66 36.68 -42.32 35.36 -43 34 C-42.28972656 33.35675781 -41.57945312 32.71351563 -40.84765625 32.05078125 C-35.15244283 26.73105035 -35.15244283 26.73105035 -32.5 19.62109375 C-32.520625 18.50863281 -32.54125 17.39617188 -32.5625 16.25 C-32.54909752 10.60755657 -32.54909752 10.60755657 -29.9453125 7.7265625 C-20.8645893 1.62987298 -10.8004799 -0.54002399 0 0 Z " fill="#0C0C0B" transform="translate(550,727)"/>
<path d="M0 0 C1.19496094 0.14888672 1.19496094 0.14888672 2.4140625 0.30078125 C4.375 0.6875 4.375 0.6875 5.375 1.6875 C5.9375 4.875 5.9375 4.875 5.375 8.6875 C3.51401755 10.40260972 1.5179939 11.69595995 -0.58984375 13.09375 C-3.87839494 15.66904537 -5.11391131 18.88372503 -6.625 22.6875 C-7.12 23.80125 -7.615 24.915 -8.125 26.0625 C-9.6750154 29.80837056 -11.16247995 33.57604645 -12.6484375 37.34765625 C-13.625 39.6875 -13.625 39.6875 -15.25 42.6875 C-16.85701437 46.19371317 -17.41577067 49.51476079 -18.08984375 53.29296875 C-18.77918229 56.37738134 -20.14031024 58.91177567 -21.625 61.6875 C-22.86160709 66.53015715 -22.97448631 71.45113227 -23.23046875 76.42382812 C-23.52240052 81.48230104 -23.52240052 81.48230104 -24.625 83.6875 C-19.9040724 81.83615584 -16.56030111 79.93412342 -12.625 76.6875 C-11.57699219 76.11644531 -10.52898438 75.54539062 -9.44921875 74.95703125 C-5.1830433 72.55459459 -1.61004852 69.52922262 2.0625 66.3125 C2.71283203 65.76078125 3.36316406 65.2090625 4.03320312 64.640625 C7.87619181 61.30298345 10.67074478 58.04841608 13.375 53.6875 C15.26417299 51.44266364 17.16935207 49.65850453 19.375 47.6875 C20.365 47.6875 21.355 47.6875 22.375 47.6875 C23.89799523 44.75029492 25.17600302 41.7706351 26.375 38.6875 C27.695 38.6875 29.015 38.6875 30.375 38.6875 C30.55675781 37.47513672 30.55675781 37.47513672 30.7421875 36.23828125 C30.90976562 35.16964844 31.07734375 34.10101562 31.25 33 C31.41242188 31.94425781 31.57484375 30.88851562 31.7421875 29.80078125 C33.24282091 22.41803541 36.39083375 19.03691885 42.375 14.6875 C47.10256531 11.86369976 50.80021864 9.6875 56.375 9.6875 C56.87 11.6675 56.87 11.6675 57.375 13.6875 C56.715 13.6875 56.055 13.6875 55.375 13.6875 C55.57867188 14.35265625 55.78234375 15.0178125 55.9921875 15.703125 C56.48840379 19.57158668 55.57024451 22.75897748 54.5 26.4375 C54.31308594 27.12199219 54.12617187 27.80648437 53.93359375 28.51171875 C52.53243046 33.53006954 52.53243046 33.53006954 51.375 34.6875 C48.41094785 47.61875344 46.98878768 60.50728026 49.375 73.6875 C50.84271271 75.95204073 50.84271271 75.95204073 52.375 77.6875 C52.375 78.3475 52.375 79.0075 52.375 79.6875 C54.025 79.0275 55.675 78.3675 57.375 77.6875 C58.9375 78.9375 58.9375 78.9375 60.375 80.6875 C59.78597999 85.28652161 56.69338295 87.73877542 53.5 90.8125 C52.95730469 91.35003906 52.41460938 91.88757813 51.85546875 92.44140625 C49.46250766 94.78756126 47.17023221 96.82401186 44.375 98.6875 C42.5625 98.5 42.5625 98.5 40.375 97.6875 C39.364375 97.336875 38.35375 96.98625 37.3125 96.625 C33.32579267 93.99546963 32.38146542 91.25530458 31.375 86.6875 C31.1875 83.1875 31.1875 83.1875 31.375 80.6875 C30.715 80.6875 30.055 80.6875 29.375 80.6875 C28.58726083 77.15248542 28.20004198 73.78500212 28.05859375 70.16796875 C28.01669922 69.14638672 27.97480469 68.12480469 27.93164062 67.07226562 C27.89232422 66.01716797 27.85300781 64.96207031 27.8125 63.875 C27.76931641 62.80056641 27.72613281 61.72613281 27.68164062 60.61914062 C27.57589017 57.97537918 27.47379767 55.3315289 27.375 52.6875 C20.40099702 59.50802168 20.40099702 59.50802168 13.875 66.75 C7.93434639 73.65741091 1.42426805 79.4261228 -6.625 83.6875 C-8.303298 85.00616272 -9.97114767 86.33830468 -11.625 87.6875 C-30.26809862 99.37135975 -30.26809862 99.37135975 -38.5625 98.3125 C-39.243125 98.10625 -39.92375 97.9 -40.625 97.6875 C-40.84499862 92.62753166 -40.20314491 88.22918571 -39.12109375 83.2890625 C-38.6382756 80.7571185 -38.417239 78.31977006 -38.25 75.75 C-37.83303658 70.86226213 -36.36343902 66.67488663 -34.5625 62.1328125 C-33.36376541 59.0061131 -32.60566298 56.48031776 -32.6875 53.125 C-32.625 50.6875 -32.625 50.6875 -30.625 47.6875 C-30.17360541 45.6382906 -30.17360541 45.6382906 -30 43.5 C-29.87625 42.241875 -29.7525 40.98375 -29.625 39.6875 C-28.965 39.6875 -28.305 39.6875 -27.625 39.6875 C-27.57601562 38.87925781 -27.52703125 38.07101562 -27.4765625 37.23828125 C-27.40179687 36.16964844 -27.32703125 35.10101562 -27.25 34 C-27.14558594 32.41638672 -27.14558594 32.41638672 -27.0390625 30.80078125 C-26.63739911 27.78072731 -25.88430981 25.44671946 -24.625 22.6875 C-29.9336849 23.26924845 -29.9336849 23.26924845 -34.625 25.6875 C-37.8125 25.8125 -37.8125 25.8125 -40.625 25.6875 C-40.955 24.0375 -41.285 22.3875 -41.625 20.6875 C-39.58528888 19.41343712 -37.54334736 18.14320798 -35.5 16.875 C-34.93023438 16.51857422 -34.36046875 16.16214844 -33.7734375 15.79492188 C-29.29997304 13.024424 -24.88908141 10.34156796 -19.8125 8.875 C-15.26903557 7.18233678 -11.57663504 4.45740799 -7.625 1.6875 C-4.3024775 -0.527515 -3.74768409 -0.50660876 0 0 Z " fill="#0A0A0A" transform="translate(826.625,743.3125)"/>
<path d="M0 0 C2.375 1 2.375 1 4 2 C4.38058069 5.330081 4.18480641 6.71936804 2.3125 9.5625 C0 12 0 12 -2.48828125 13.8125 C-5.2945547 16.25653286 -6.1893095 17.98757537 -7.5 21.4375 C-7.90863281 22.49195313 -8.31726563 23.54640625 -8.73828125 24.6328125 C-9.36283203 26.29957031 -9.36283203 26.29957031 -10 28 C-10.67095703 29.69769531 -10.67095703 29.69769531 -11.35546875 31.4296875 C-13.85300064 37.76971421 -13.85300064 37.76971421 -15.921875 44.2578125 C-16.75761183 47.15866717 -17.67108196 49.94900532 -18.69140625 52.78515625 C-22.33057986 62.98696332 -25.12875377 72.05592956 -25 83 C-22.64828869 82.40138258 -20.3140622 81.73075648 -18 81 C-17.67 80.34 -17.34 79.68 -17 79 C-15.93652344 78.60941406 -15.93652344 78.60941406 -14.8515625 78.2109375 C-11.14261526 76.63590511 -8.3781501 74.24683727 -5.375 71.625 C-4.76543457 71.09841797 -4.15586914 70.57183594 -3.52783203 70.02929688 C1.58617662 65.53035683 6.18648455 60.69187766 10.6953125 55.59375 C13.51380945 52.42174666 16.48940893 49.48568418 19.5625 46.5625 C22.07823346 44.11812413 22.07823346 44.11812413 23.625 41.1875 C24.07875 40.465625 24.5325 39.74375 25 39 C25.99 39 26.98 39 28 39 C28.10957031 38.3709375 28.21914063 37.741875 28.33203125 37.09375 C30.24529352 26.76524473 32.04398281 20.21808191 41 14 C44.79256438 11.87398342 48.69875441 10.65170388 53 10 C53.495 11.98 53.495 11.98 54 14 C53.34 14 52.68 14 52 14 C52.495 14.99 52.495 14.99 53 16 C52.9625459 20.95330472 52.25983064 25.65991854 50.5625 30.3125 C46.98111067 40.52999308 46.78412395 50.77326673 46.6875 61.5 C46.66985596 62.64654053 46.65221191 63.79308105 46.6340332 64.97436523 C46.63491943 66.06563721 46.63580566 67.15690918 46.63671875 68.28125 C46.63373779 69.26158203 46.63075684 70.24191406 46.62768555 71.25195312 C47.06734108 74.49704343 48.02895221 76.40060892 50 79 C52.5 79.25 52.5 79.25 55 79 C56.485 79.99 56.485 79.99 58 81 C57.52219508 85.30024427 55.06572482 87.13421376 52 90 C50.78919732 91.22673429 49.58095264 92.45599752 48.375 93.6875 C46.28917526 95.81579628 44.51141523 97.32572318 42 99 C39.625 98.75 39.625 98.75 37 98 C36.13375 97.814375 35.2675 97.62875 34.375 97.4375 C30.691208 95.20783642 30.15763914 91.99713137 29 88 C28.62875 86.845 28.2575 85.69 27.875 84.5 C26.03838693 77.15354774 25.86637569 70.02823414 25.9375 62.5 C25.94201172 61.5821875 25.94652344 60.664375 25.95117188 59.71875 C25.96283674 57.47909609 25.97920386 55.23958455 26 53 C24.9171875 54.0828125 24.9171875 54.0828125 23.8125 55.1875 C11 68 11 68 8.29296875 70.69921875 C6.94612522 72.05065119 5.61262747 73.4160668 4.3125 74.8125 C3 76 3 76 1 76 C0.74992187 76.6084375 0.49984375 77.216875 0.2421875 77.84375 C-1.19659247 80.34125485 -2.38279221 81.10812546 -4.875 82.5 C-7.35795234 83.9539811 -9.13425153 85.13425153 -11.1875 87.1875 C-13.35307905 89.35307905 -15.12696021 89.95525826 -18 91 C-19.23501477 91.61336304 -20.46363801 92.23967526 -21.6875 92.875 C-24.81066091 94.44841061 -27.96246257 95.89663608 -31.1875 97.25 C-32.38439453 97.75273438 -32.38439453 97.75273438 -33.60546875 98.265625 C-36.21147525 99.06485701 -38.28937259 99.20598896 -41 99 C-42 98 -42 98 -42.1875 95.25 C-41.99624682 91.93494486 -41.23313932 90.04527953 -40 87 C-39.42674959 84.90421754 -38.88557559 82.7994263 -38.375 80.6875 C-38.11460937 79.61886719 -37.85421875 78.55023437 -37.5859375 77.44921875 C-37.29589844 76.23685547 -37.29589844 76.23685547 -37 75 C-37.66 75 -38.32 75 -39 75 C-38.71788123 73.3733152 -38.42397625 71.74867104 -38.125 70.125 C-37.96257812 69.22007812 -37.80015625 68.31515625 -37.6328125 67.3828125 C-37 65 -37 65 -35 63 C-34.37275343 59.67559316 -33.9872922 56.57185109 -34.0625 53.1875 C-34 51 -34 51 -32 49 C-31.53993654 46.79749008 -31.53993654 46.79749008 -31.375 44.375 C-31.30023438 43.55773437 -31.22546875 42.74046875 -31.1484375 41.8984375 C-31.07496094 40.95871094 -31.07496094 40.95871094 -31 40 C-30.34 40 -29.68 40 -29 40 C-28.87625 39.278125 -28.7525 38.55625 -28.625 37.8125 C-28.0095069 35.04278106 -27.11555626 32.6029646 -26 30 C-26.66 30 -27.32 30 -28 30 C-28 29.34 -28 28.68 -28 28 C-27.34 27.67 -26.68 27.34 -26 27 C-25.34786708 24.97536745 -25.34786708 24.97536745 -25 23 C-26.258125 23.12375 -27.51625 23.2475 -28.8125 23.375 C-29.52019531 23.44460938 -30.22789062 23.51421875 -30.95703125 23.5859375 C-33.29988142 23.92665391 -33.29988142 23.92665391 -36 26 C-38.625 26.1875 -38.625 26.1875 -41 26 C-42 25 -42 25 -42.0625 22.4375 C-42.041875 21.633125 -42.02125 20.82875 -42 20 C-27.02979374 11.50241915 -27.02979374 11.50241915 -20.52734375 9.078125 C-17.64553484 7.84879075 -15.34724532 6.27432755 -12.8125 4.4375 C-8.14308287 1.07019919 -5.87659145 -0.35259549 0 0 Z " fill="#0B0B0A" transform="translate(417,743)"/>
<path d="M0 0 C1.01426216 3.62236485 1.46871252 7.28098767 2 11 C2.268125 11.721875 2.53625 12.44375 2.8125 13.1875 C2.874375 13.785625 2.93625 14.38375 3 15 C2.38125 15.515625 1.7625 16.03125 1.125 16.5625 C-1.85921572 19.98557098 -1.61401449 23.0151052 -1.82421875 27.44140625 C-2 30 -2 30 -3 33 C-3.04676782 34.4002633 -3.03849544 35.80284642 -2.9921875 37.203125 C-2.97542969 38.01910156 -2.95867187 38.83507812 -2.94140625 39.67578125 C-2.89753251 41.37653369 -2.8455977 43.07709947 -2.78515625 44.77734375 C-2.68904543 50.34303407 -3.71169572 53.85431053 -6 59 C-6.25001112 62.69525306 -6.25001112 62.69525306 -6 66.4375 C-5.83945917 73.48733648 -6.87547224 77.75094447 -10 84 C-10.15773312 86.31049811 -10.27634164 88.62372651 -10.375 90.9375 C-10.73490619 97.62582358 -11.96861559 103.63218878 -14 110 C-14.33 111.258125 -14.66 112.51625 -15 113.8125 C-16 117 -16 117 -17.44140625 119.69140625 C-19.51197229 124.08681838 -20.40346743 128.51470628 -21.37304688 133.25390625 C-22.37585069 137.69309634 -23.55588143 140.04490435 -27 143 C-27.28875 143.763125 -27.5775 144.52625 -27.875 145.3125 C-30.72192403 152.11348518 -37.1227215 157.7282067 -43.38671875 161.3984375 C-46.06076309 163.03723896 -48.35015485 164.85944378 -50.75 166.875 C-62.02998155 176 -62.02998155 176 -69 176 C-67.20494336 167.92224511 -67.20494336 167.92224511 -63.96875 165.4453125 C-62.74671875 164.79175781 -62.74671875 164.79175781 -61.5 164.125 C-51.10411079 158.27261085 -42.852264 152.25791 -36.4296875 142.0859375 C-35 140 -35 140 -33.34765625 138.36328125 C-31.80127247 137.04887234 -31.80127247 137.04887234 -31.5625 134.8125 C-30.63819113 130.19095565 -28.23985608 126.11933876 -25.87109375 122.0703125 C-24.8026164 119.53088204 -24.8677446 117.67766664 -25 114.9375 C-25.18312241 111.13198741 -25.20788505 110.31182758 -23 107 C-19.01539362 93.02528003 -18.91122092 78.9646828 -18.8125 64.5625 C-18.79936768 63.34095215 -18.78623535 62.1194043 -18.77270508 60.86083984 C-18.76725369 54.77289617 -19.08237044 49.76018004 -21 44 C-21.27069697 41.6939683 -21.48165343 39.37993625 -21.625 37.0625 C-21.73714844 35.34740234 -21.73714844 35.34740234 -21.8515625 33.59765625 C-21.90054687 32.74042969 -21.94953125 31.88320313 -22 31 C-25.76133513 34.15466817 -29.35013189 37.22015827 -32.5 41 C-35.03076845 44.03692214 -37.70244752 46.40367722 -40.703125 48.953125 C-43.38126 51.33976232 -45.86703789 53.87286078 -48.375 56.4375 C-56.74209128 64.92899824 -67.14612234 74.96761269 -79 78 C-80.175625 78.309375 -80.175625 78.309375 -81.375 78.625 C-82.179375 78.810625 -82.179375 78.810625 -83 79 C-84.1875 76.9375 -84.1875 76.9375 -85 74 C-84.27873258 71.45187276 -83.21291073 69.37917104 -82 67 C-81.34 67 -80.68 67 -80 67 C-80 63.7 -80 60.4 -80 57 C-79.34 57 -78.68 57 -78 57 C-78.02320313 56.33613281 -78.04640625 55.67226563 -78.0703125 54.98828125 C-78.08835937 54.10527344 -78.10640625 53.22226562 -78.125 52.3125 C-78.14820313 51.44238281 -78.17140625 50.57226562 -78.1953125 49.67578125 C-78 47 -78 47 -77.04101562 44.6640625 C-75.97992707 41.94863138 -75.51959818 39.58414952 -75.1484375 36.69921875 C-75.01953125 35.72275391 -74.890625 34.74628906 -74.7578125 33.74023438 C-74.63148437 32.73283203 -74.50515625 31.72542969 -74.375 30.6875 C-74.2409375 29.66076172 -74.106875 28.63402344 -73.96875 27.57617188 C-73.63995296 25.05148034 -73.31724083 22.52616521 -73 20 C-76.75828338 21.11145932 -78.74270596 21.74270596 -81.5625 24.5625 C-84.16460587 27.16460587 -85.40873222 27.69217705 -89 28 C-90.4793324 25.65047207 -91.03412819 24.38409724 -90.78515625 21.58203125 C-89.40242743 17.03484842 -85.74873527 14.70179119 -82 12 C-78.6875 10.375 -78.6875 10.375 -75 9 C-73.12022006 8.15640467 -71.24553464 7.30140154 -69.375 6.4375 C-58.64281783 1.50192625 -58.64281783 1.50192625 -54 1 C-53.34 1.66 -52.68 2.32 -52 3 C-52.13671875 5.4609375 -52.13671875 5.4609375 -52.6875 8.375 C-52.85636719 9.33148437 -53.02523438 10.28796875 -53.19921875 11.2734375 C-54 14 -54 14 -55.39453125 15.84765625 C-57.72465081 18.9714905 -58.75514985 22.39478172 -60 26.0625 C-60.39300293 27.19824463 -60.39300293 27.19824463 -60.79394531 28.35693359 C-62.52680579 33.42927301 -64.08760614 38.52245843 -65.41015625 43.71875 C-65.92482313 45.70924971 -66.54746297 47.67120275 -67.1875 49.625 C-68.19702738 53.81842143 -68.1750416 57.71148074 -68 62 C-63.34140938 59.08136491 -59.45997203 55.80006818 -55.5 52 C-52.3609251 48.98768109 -49.3259063 46.11464689 -45.66015625 43.75 C-42.82052705 41.88193263 -42.38520791 40.95511022 -41 38 C-39.36395804 36.62926214 -37.69321939 35.29944744 -36 34 C-33.56633663 31.68222536 -31.34333649 29.47538898 -29.375 26.75 C-28 25 -28 25 -25 24 C-23.79117904 21.99983534 -23.79117904 21.99983534 -23 20 C-22.34 20 -21.68 20 -21 20 C-21.020625 19.05125 -21.04125 18.1025 -21.0625 17.125 C-21 14 -21 14 -20 12 C-19.34 12 -18.68 12 -18 12 C-17.95875 11.278125 -17.9175 10.55625 -17.875 9.8125 C-16.47571958 5.31481293 -13.13304673 3.1952417 -9.1875 0.984375 C-5.84795767 -0.59902869 -3.48621083 -1.53393276 0 0 Z " fill="#0C0C0C" transform="translate(1383,731)"/>
<path d="M0 0 C11.74061552 0.24909368 17.50913625 6.46698958 25.4375 14.25 C23.87502399 17.76185084 21.99273157 19.63144117 18.94921875 22.01171875 C17.25476496 23.33419398 17.25476496 23.33419398 15.375 25.5625 C13.4375 27.25 13.4375 27.25 11.125 27.9375 C6.75770533 26.82028508 4.38671777 23.51370782 1.4375 20.25 C-1.03904551 17.59163217 -3.10910832 16.46335383 -6.5625 15.25 C-10.50090209 19.49932857 -12.20417165 22.50322622 -13.5625 28.25 C-13.86929687 28.93320312 -14.17609375 29.61640625 -14.4921875 30.3203125 C-16.06712443 34.63127125 -16.72398903 39.04854239 -17.5 43.5625 C-17.85146108 45.53908054 -18.20302437 47.5156429 -18.5546875 49.4921875 C-19.03676232 52.23665489 -19.51624978 54.98149469 -19.98925781 57.72753906 C-20.36111642 59.88210447 -20.74242224 62.0348174 -21.125 64.1875 C-21.33253906 65.39277344 -21.54007813 66.59804688 -21.75390625 67.83984375 C-22.63216673 71.54381186 -24.0454788 74.76571868 -25.5625 78.25 C-26.10571812 80.68753494 -26.10571812 80.68753494 -26.375 83 C-27.45343669 89.09551173 -30.39101363 94.00408229 -33.5625 99.25 C-34.2225 99.25 -34.8825 99.25 -35.5625 99.25 C-35.5625 100.24 -35.5625 101.23 -35.5625 102.25 C-34.17224609 102.23259766 -34.17224609 102.23259766 -32.75390625 102.21484375 C-31.55636719 102.20582031 -30.35882812 102.19679688 -29.125 102.1875 C-27.93003906 102.17589844 -26.73507812 102.16429687 -25.50390625 102.15234375 C-22.5625 102.25 -22.5625 102.25 -21.5625 103.25 C-18.46324403 103.48201049 -15.38136341 103.65404772 -12.27734375 103.78515625 C-11.34652481 103.82813339 -10.41570587 103.87111053 -9.4566803 103.91539001 C-6.47130265 104.0522019 -3.48567771 104.18241711 -0.5 104.3125 C1.51889985 104.40386391 3.53778041 104.49565511 5.55664062 104.58789062 C10.51671651 104.81356018 15.47702394 105.03331233 20.4375 105.25 C20.56423096 104.46447754 20.69096191 103.67895508 20.8215332 102.86962891 C21.95532019 98.04777622 26.51221127 95.90169256 30.4375 93.25 C35.3933011 90.20027624 35.3933011 90.20027624 39.0625 90.375 C41.61050787 91.31373974 43.37766712 92.49532755 45.4375 94.25 C44.95903935 98.55614589 43.77823619 100.49880549 40.4375 103.25 C38.9525 103.745 38.9525 103.745 37.4375 104.25 C37.169375 104.86875 36.90125 105.4875 36.625 106.125 C34.89677313 109.2176165 32.65068415 109.93849627 29.4375 111.25 C28.4475 111.25 27.4575 111.25 26.4375 111.25 C26.4375 111.91 26.4375 112.57 26.4375 113.25 C24.38671875 113.47786458 22.3359375 113.70572917 20.28515625 113.93359375 C18.42609771 114.06886614 18.42609771 114.06886614 17.4375 115.25 C12.64716907 115.94683108 7.81842668 116.35319695 3 116.8125 C2.29121704 116.88069946 1.58243408 116.94889893 0.85217285 117.01916504 C-14.33112014 118.46178888 -29.07648083 118.58427757 -44.28613281 117.51855469 C-48.24708632 117.26064008 -51.68079529 117.20403166 -55.5625 118.25 C-55.5625 116.93 -55.5625 115.61 -55.5625 114.25 C-56.43132812 114.28480469 -57.30015625 114.31960938 -58.1953125 114.35546875 C-70.48939295 114.64425587 -70.48939295 114.64425587 -74.5625 111.25 C-75.4375 108.0625 -75.4375 108.0625 -75.5625 105.25 C-73.5825 104.755 -73.5825 104.755 -71.5625 104.25 C-71.5625 103.26 -71.5625 102.27 -71.5625 101.25 C-68.32944598 98.3369691 -64.79909547 96.4266565 -60.5 95.8125 C-57.07082366 96.32322839 -53.88873124 97.27507015 -50.5625 98.25 C-47.89841134 98.6760669 -45.24730797 98.96738863 -42.5625 99.25 C-40.35697998 93.2349454 -39.05005151 87.53846579 -38.09375 81.2109375 C-37.60775901 78.5022524 -36.92856025 76.04434136 -36.0625 73.4375 C-34.24773997 67.82824173 -33.65629839 62.10870337 -32.9921875 56.27734375 C-32.5625 53.25 -32.5625 53.25 -31.5625 52.25 C-31.33460574 50.47309891 -31.16760212 48.68830032 -31.02734375 46.90234375 C-30.94033203 45.82275391 -30.85332031 44.74316406 -30.76367188 43.63085938 C-30.67666016 42.49455078 -30.58964844 41.35824219 -30.5 40.1875 C-30.40912109 39.04732422 -30.31824219 37.90714844 -30.22460938 36.73242188 C-29.99985454 33.90524259 -29.77934289 31.07779536 -29.5625 28.25 C-28.9025 28.25 -28.2425 28.25 -27.5625 28.25 C-27.624375 27.239375 -27.68625 26.22875 -27.75 25.1875 C-27.44289609 18.73831793 -25.69849524 15.00999556 -21.0625 10.6875 C-16.96378173 7.30624824 -12.49819578 4.8386523 -7.78515625 2.4140625 C-3.29087409 0.06029082 -3.29087409 0.06029082 0 0 Z " fill="#0B0A0A" transform="translate(1231.5625,727.75)"/>
<path d="M0 0 C1.52519276 0.08937803 3.04681929 0.24537146 4.5625 0.4375 C5.38878906 0.53933594 6.21507812 0.64117188 7.06640625 0.74609375 C7.70449219 0.82988281 8.34257812 0.91367187 9 1 C9 1.66 9 2.32 9 3 C11.06271639 2.6889315 13.12516466 2.37608484 15.1875 2.0625 C16.33605469 1.88847656 17.48460937 1.71445312 18.66796875 1.53515625 C21.46325212 1.08620687 24.22933586 0.57917838 27 0 C27.75 2.75 27.75 2.75 28 6 C26.1522785 8.55838361 24.71889002 9.74040083 21.75 10.8125 C18.11321647 12.38292925 15.71558163 14.82366731 12.8671875 17.5390625 C11 19 11 19 8 19 C7.505 17.02 7.505 17.02 7 15 C-2.24 15 -11.48 15 -21 15 C-21.268125 17.26875 -21.53625 19.5375 -21.8125 21.875 C-22.60718056 28.16349025 -23.99362542 33.98087627 -26 40 C-26.34570898 41.33017826 -26.68302859 42.66268253 -27 44 C-22.79106005 44.98103494 -18.63006562 45.26422783 -14.328125 45.46484375 C-12.84503356 45.54327031 -11.36196112 45.62205678 -9.87890625 45.70117188 C-7.55274003 45.82140568 -5.22653131 45.93861907 -2.89990234 46.04956055 C-0.64627535 46.15862228 1.60645891 46.27957758 3.859375 46.40234375 C4.56036316 46.43263168 5.26135132 46.46291962 5.98358154 46.49412537 C7.66148903 46.58957841 9.33316259 46.78520273 11 47 C11.33 47.66 11.66 48.32 12 49 C13.485 49.495 13.485 49.495 15 50 C14.12737648 53.27233819 13.52609096 55.49087971 11.0625 57.875 C9 59 9 59 6 59 C5.67 59.99 5.34 60.98 5 62 C-1.05714286 66 -1.05714286 66 -6 66 C-6 65.34 -6 64.68 -6 64 C-7.485 63.505 -7.485 63.505 -9 63 C-9.33 62.34 -9.66 61.68 -10 61 C-13.24991682 60.83168475 -16.49994564 60.66563638 -19.75 60.5 C-20.67039062 60.45230469 -21.59078125 60.40460937 -22.5390625 60.35546875 C-23.42851562 60.31035156 -24.31796875 60.26523437 -25.234375 60.21875 C-26.45979004 60.1559082 -26.45979004 60.1559082 -27.70996094 60.09179688 C-29.80518124 60.00780937 -31.90309704 60 -34 60 C-34.103125 61.03125 -34.20625 62.0625 -34.3125 63.125 C-35.71587037 74.35196299 -38.66829103 84.91529347 -42.94140625 95.35546875 C-43.62929625 97.07392458 -44.28502843 98.80572971 -44.90234375 100.55078125 C-46.94300957 106.18231827 -49.54496793 110.41347734 -53.4140625 114.9921875 C-55.05990239 116.92493473 -55.05990239 116.92493473 -56.0234375 119.1328125 C-57 121 -57 121 -60 123 C-62.04296875 123.4140625 -62.04296875 123.4140625 -64.1875 123.625 C-65.445625 123.74875 -66.70375 123.8725 -68 124 C-68 124.66 -68 125.32 -68 126 C-69.98 126 -71.96 126 -74 126 C-74.625 123.625 -74.625 123.625 -75 121 C-74.01 120.01 -74.01 120.01 -73 119 C-72.690625 117.329375 -72.690625 117.329375 -72.375 115.625 C-70.89903698 111.73382477 -70.7946621 111.52762027 -67.3125 109.9375 C-66.60222656 109.63070312 -65.89195312 109.32390625 -65.16015625 109.0078125 C-58.67228948 105.98092348 -55.38615324 101.65077016 -52.83984375 95.09375 C-52 93 -52 93 -50.3125 90.4375 C-48.45295287 86.98405532 -48.3302055 83.89642495 -48 80 C-47.34 80 -46.68 80 -46 80 C-46.020625 79.071875 -46.04125 78.14375 -46.0625 77.1875 C-46 74 -46 74 -45 71 C-44.855625 70.38125 -44.71125 69.7625 -44.5625 69.125 C-43.90839612 66.65394089 -42.98227901 64.35746963 -42 62 C-43.03125 62.04125 -44.0625 62.0825 -45.125 62.125 C-48.86829627 62.00424851 -51.53734547 61.35127982 -55 60 C-55.60996401 54.85887479 -55.60996401 54.85887479 -55 52 C-52.42811949 49.14471668 -49.24961778 47.47282835 -45.6875 46.125 C-43.37653876 44.58435917 -42.93483551 42.76666556 -42.30078125 40.13671875 C-41.83947789 36.85966758 -41.907759 33.63361014 -42.02734375 30.33203125 C-42.0002971 28.02533857 -41.5574511 26.22551631 -41 24 C-40.93375493 22.25113019 -40.91447405 20.49997252 -40.9375 18.75 C-40.94652344 17.85796875 -40.95554687 16.9659375 -40.96484375 16.046875 C-40.97644531 15.37140625 -40.98804688 14.6959375 -41 14 C-42.64574566 13.97311849 -44.29161413 13.95365877 -45.9375 13.9375 C-47.31228516 13.92009766 -47.31228516 13.92009766 -48.71484375 13.90234375 C-50.96593327 13.74050951 -50.96593327 13.74050951 -52 15 C-54.0279979 15.2253331 -56.05674874 15.44767185 -58.08984375 15.62109375 C-60.2328948 15.86222227 -60.2328948 15.86222227 -62 18 C-64.41088579 17.76668847 -65.78051858 17.15677244 -67.75 15.75 C-69.47854994 13.33003008 -69.3834611 11.92223801 -69 9 C-67.20703125 7.26953125 -67.20703125 7.26953125 -64.8125 5.8125 C-64.03519531 5.32394531 -63.25789063 4.83539062 -62.45703125 4.33203125 C-54.24555594 -0.11965886 -46.99752438 0.69126918 -38 2 C-38 2.66 -38 3.32 -38 4 C-37.01 3.34 -36.02 2.68 -35 2 C-33.09887695 1.68115234 -33.09887695 1.68115234 -30.98828125 1.5859375 C-30.23095703 1.54726563 -29.47363281 1.50859375 -28.69335938 1.46875 C-27.90767578 1.4378125 -27.12199219 1.406875 -26.3125 1.375 C-25.51521484 1.33632813 -24.71792969 1.29765625 -23.89648438 1.2578125 C-21.93136525 1.16367506 -19.9657146 1.08075368 -18 1 C-18 1.66 -18 2.32 -18 3 C-15.18683642 2.69272975 -12.37457481 2.37944848 -9.5625 2.0625 C-8.76005859 1.97548828 -7.95761719 1.88847656 -7.13085938 1.79882812 C-3.24423336 1.69451606 -3.24423336 1.69451606 0 0 Z " fill="#0A0A0A" transform="translate(339,731)"/>
<path d="M0 0 C0.99 0 1.98 0 3 0 C3.495 3.465 3.495 3.465 4 7 C3.34 7 2.68 7 2 7 C1.79375 7.598125 1.5875 8.19625 1.375 8.8125 C-0.52962354 11.8425829 -2.77923144 12.48076955 -6 14 C-8.39483178 15.59335501 -10.6865275 17.28803035 -13 19 C-17 17 -17 17 -18.78808594 15.95556641 C-21.50429806 14.78213878 -23.68635337 14.68022276 -26.640625 14.5859375 C-27.71054688 14.54726563 -28.78046875 14.50859375 -29.8828125 14.46875 C-30.99398438 14.4378125 -32.10515625 14.406875 -33.25 14.375 C-34.37664062 14.33632813 -35.50328125 14.29765625 -36.6640625 14.2578125 C-39.44254548 14.16362664 -42.22102334 14.07800414 -45 14 C-44.9484375 15.0828125 -44.896875 16.165625 -44.84375 17.28125 C-44.84375 22.87150521 -46.18751673 28.09398783 -47.5 33.5 C-47.73847656 34.51320313 -47.97695312 35.52640625 -48.22265625 36.5703125 C-48.80722034 39.04886426 -49.39981469 41.52519334 -50 44 C-48.33333333 44.33333333 -46.66666667 44.66666667 -45 45 C-44.20376221 45.17909912 -43.40752441 45.35819824 -42.5871582 45.54272461 C-39.574624 46.07518441 -36.66305187 46.21496984 -33.60546875 46.31640625 C-31.80239258 46.37924805 -31.80239258 46.37924805 -29.96289062 46.44335938 C-28.71701172 46.48267578 -27.47113281 46.52199219 -26.1875 46.5625 C-24.28967773 46.62727539 -24.28967773 46.62727539 -22.35351562 46.69335938 C-19.23578111 46.7992447 -16.11796965 46.90132405 -13 47 C-12.67 47.66 -12.34 48.32 -12 49 C-10.515 49.495 -10.515 49.495 -9 50 C-10.2657597 55.21195169 -11.97204909 57.25174389 -16.375 60.25 C-17.33148437 60.91515625 -18.28796875 61.5803125 -19.2734375 62.265625 C-25.14414414 66 -25.14414414 66 -29 66 C-29 65.34 -29 64.68 -29 64 C-29.639375 63.690625 -30.27875 63.38125 -30.9375 63.0625 C-33 62 -33 62 -34 61 C-35.7037908 60.77246643 -37.41573499 60.60526762 -39.12890625 60.46484375 C-40.16337891 60.37783203 -41.19785156 60.29082031 -42.26367188 60.20117188 C-43.35228516 60.11416016 -44.44089844 60.02714844 -45.5625 59.9375 C-46.65498047 59.84662109 -47.74746094 59.75574219 -48.87304688 59.66210938 C-51.58172492 59.43737189 -54.29068166 59.21685911 -57 59 C-57.18175781 60.50240234 -57.18175781 60.50240234 -57.3671875 62.03515625 C-57.53617151 63.3776403 -57.70545858 64.72008623 -57.875 66.0625 C-57.95363281 66.71927734 -58.03226563 67.37605469 -58.11328125 68.05273438 C-58.68717487 72.5335192 -59.66407776 76.68351175 -61 81 C-61.66 81 -62.32 81 -63 81 C-63.0825 82.299375 -63.165 83.59875 -63.25 84.9375 C-63.73641076 89.3220477 -64.98137872 92.73057349 -66.90234375 96.67578125 C-68.05509122 99.11665223 -68.95745126 101.58734429 -69.875 104.125 C-71.50825071 108.27885811 -73.51166034 111.191837 -76.58203125 114.40625 C-78.24185256 116.14044328 -78.24185256 116.14044328 -79.6875 119.25 C-83.22027016 123.45113208 -87.70914243 124.14445707 -93 125 C-94.66615885 125.04113972 -96.33422195 125.05441743 -98 125 C-98.125 122.625 -98.125 122.625 -98 120 C-97.01 119.01 -97.01 119.01 -96 118 C-95.896875 117.01 -95.79375 116.02 -95.6875 115 C-95.460625 114.01 -95.23375 113.02 -95 112 C-93.35764093 111.27551472 -91.68510464 110.61858272 -90 110 C-88.25834288 108.94918256 -86.54954325 107.84226912 -84.875 106.6875 C-84.02679687 106.11386719 -83.17859375 105.54023437 -82.3046875 104.94921875 C-75.09814647 98.85419507 -72.72096886 87.89167242 -71 79 C-70.34 79 -69.68 79 -69 79 C-68.95101563 78.26394531 -68.90203125 77.52789063 -68.8515625 76.76953125 C-68.77679687 75.79371094 -68.70203125 74.81789063 -68.625 73.8125 C-68.55539062 72.84957031 -68.48578125 71.88664063 -68.4140625 70.89453125 C-67.99784147 67.98491062 -67.20125904 65.67109226 -66 63 C-66.61488281 62.95101562 -67.22976563 62.90203125 -67.86328125 62.8515625 C-68.67152344 62.77679687 -69.47976563 62.70203125 -70.3125 62.625 C-71.11300781 62.55539062 -71.91351562 62.48578125 -72.73828125 62.4140625 C-75 62 -75 62 -78 60 C-78.39730387 56.92089498 -78.62195491 54.95135206 -78 52 C-75.43337215 49.20690498 -73.40448798 48.13482933 -69.8125 46.9375 C-66.58463952 44.71386278 -66.4243543 44.17929744 -65.625 40.5 C-64.4880578 32.0752583 -64.84181668 23.48038362 -65 15 C-71.47043697 14.00039178 -77.81675406 13.38811163 -84 16 C-84.66 16.99 -85.32 17.98 -86 19 C-88.86095641 17.7175023 -91.11365918 16.54656011 -93 14 C-93.41015625 11.62890625 -93.41015625 11.62890625 -93 9 C-90.69921875 7.015625 -90.69921875 7.015625 -87.6875 5.25 C-86.70136719 4.65703125 -85.71523437 4.0640625 -84.69921875 3.453125 C-77.62390689 -0.35587067 -69.7013754 0.67217665 -62 2 C-61.01 2.66 -60.02 3.32 -59 4 C-59 3.34 -59 2.68 -59 2 C-56.02111874 1.8061789 -53.04209754 1.61964898 -50.0625 1.4375 C-49.21236328 1.38142578 -48.36222656 1.32535156 -47.48632812 1.26757812 C-46.27299805 1.19506836 -46.27299805 1.19506836 -45.03515625 1.12109375 C-44.2862915 1.0739624 -43.53742676 1.02683105 -42.76586914 0.97827148 C-41 1 -41 1 -40 2 C-38.30819573 2.01681414 -36.61560387 1.96247597 -34.92578125 1.87890625 C-33.87132812 1.83056641 -32.816875 1.78222656 -31.73046875 1.73242188 C-30.03857422 1.64831055 -30.03857422 1.64831055 -28.3125 1.5625 C-19.95283619 1.17776547 -11.64987688 0.90000239 -3.28125 1.0625 C-1.03333492 1.2624936 -1.03333492 1.2624936 0 0 Z " fill="#090908" transform="translate(1165,731)"/>
<path d="M0 0 C2.96064478 2.56722576 5.24883778 5.49767555 7 9 C7.34830592 14.60362763 7.41257077 20.56703552 6 26 C3.625 28.25 3.625 28.25 1 30 C-0.81049081 31.68117004 -1.89476614 32.78953228 -3 35 C-6.2668126 36.54266151 -9.44765442 37.39102647 -13 38 C-14.85559959 34.59806742 -15.06999495 33.28497944 -14.125 29.4375 C-13.75375 28.303125 -13.3825 27.16875 -13 26 C-13 24.68 -13 23.36 -13 22 C-20.8062105 21.113084 -20.8062105 21.113084 -27.5625 24.125 C-28.366875 25.07375 -29.17125 26.0225 -30 27 C-31.61343564 27.97255877 -33.2652874 28.88238824 -34.9375 29.75 C-39.55495313 32.16509066 -43.94484824 34.79261937 -48.3125 37.625 C-48.88669678 37.9972168 -49.46089355 38.36943359 -50.05249023 38.75292969 C-52.79846598 40.54248666 -55.52526653 42.35609142 -58.23828125 44.1953125 C-60.7835433 45.85855305 -63.14238942 46.99143156 -66 48 C-63.88011686 50.52007953 -62.67527354 51.86695425 -59.39038086 52.51416016 C-57.94223999 52.52648682 -57.94223999 52.52648682 -56.46484375 52.5390625 C-55.40845703 52.56226563 -54.35207031 52.58546875 -53.26367188 52.609375 C-52.16603516 52.61453125 -51.06839844 52.6196875 -49.9375 52.625 C-47.75900071 52.65049443 -45.58057608 52.68398252 -43.40234375 52.7265625 C-42.43804443 52.73252441 -41.47374512 52.73848633 -40.48022461 52.74462891 C-38 53 -38 53 -35 55 C-32.99907414 55.01421112 -30.99692872 54.9397082 -29 54.8125 C-22.80293346 54.67417262 -18.79892962 55.98810209 -13.4375 59.00390625 C-11.02377661 60.25576926 -11.02377661 60.25576926 -8.42578125 59.4609375 C-6 59 -6 59 -4.04296875 60.22265625 C-3.12451172 61.13337891 -3.12451172 61.13337891 -2.1875 62.0625 C1.6633777 65.71533256 5.70850209 68.88409859 10 72 C9.505 73.98 9.505 73.98 9 76 C9.66 76 10.32 76 11 76 C10.83166674 85.18181411 9.70418632 91.19332596 3.20703125 97.83203125 C1.20750214 99.66393516 -0.85553945 101.34078235 -3 103 C-3.96679688 103.78890625 -3.96679688 103.78890625 -4.953125 104.59375 C-10.83429286 108.99340229 -17.16352241 110.85336675 -24.1328125 112.82421875 C-27.90006713 113.90930082 -31.40792981 115.4279508 -35 117 C-48.05705157 121.8921329 -63.21950888 121.46346448 -77 122 C-77 121.34 -77 120.68 -77 120 C-78.051875 120.103125 -79.10375 120.20625 -80.1875 120.3125 C-84 120 -84 120 -86.9375 117.875 C-89 115 -89 115 -89.875 112.125 C-88.64301881 107.72506717 -86.24313523 105.97445863 -82.59765625 103.3515625 C-78.72696905 101.33764104 -75.25114537 101.16495359 -71 102 C-70 103 -70 103 -69.9375 105.5625 C-69.958125 106.366875 -69.97875 107.17125 -70 108 C-71.98 108.99 -71.98 108.99 -74 110 C-73.67 110.99 -73.34 111.98 -73 113 C-69.68751813 113.02888146 -66.37506833 113.04675799 -63.0625 113.0625 C-61.64420898 113.07506836 -61.64420898 113.07506836 -60.19726562 113.08789062 C-59.29814453 113.09111328 -58.39902344 113.09433594 -57.47265625 113.09765625 C-56.64000244 113.10289307 -55.80734863 113.10812988 -54.94946289 113.11352539 C-52.99483202 113.21643292 -52.99483202 113.21643292 -52 112 C-50.16982748 111.74682613 -48.3354827 111.52376224 -46.5 111.3125 C-40.75614085 110.47472165 -35.52520808 109.01389278 -30.0625 107.0625 C-28.99902344 106.68315308 -28.99902344 106.68315308 -27.9140625 106.29614258 C-21.15297775 103.80626768 -16.08654323 101.22783609 -11 96 C-10.34 96 -9.68 96 -9 96 C-8.00018774 91.80723889 -7.80165952 87.80495998 -7.75 83.5 C-7.72421875 82.2109375 -7.6984375 80.921875 -7.671875 79.59375 C-8.10727786 74.825052 -9.66684585 72.33315415 -13 69 C-14.175625 68.814375 -14.175625 68.814375 -15.375 68.625 C-18 68 -18 68 -19.75 65.9375 C-22.81269077 63.30018295 -24.96902764 63.71307592 -28.87890625 63.95703125 C-31 64 -31 64 -34 63 C-36.88216339 62.95323061 -39.74416142 62.95668769 -42.625 63 C-49.86416398 63.06098472 -57.02649883 62.84177604 -64.24829102 62.35766602 C-69.18252552 62.0306096 -74.05711111 61.91012929 -79 62 C-79.66 60.35 -80.32 58.7 -81 57 C-81.66 57 -82.32 57 -83 57 C-82.75780864 53.71527963 -81.87528928 52.88753765 -79.375 50.6328125 C-78.25848202 49.78557929 -77.1329031 48.95019517 -76 48.125 C-75.40695068 47.6815625 -74.81390137 47.238125 -74.20288086 46.78125 C-70.36342833 43.93250637 -66.44819071 41.22361916 -62.4375 38.62109375 C-59.25940645 36.50745781 -56.16281868 34.28810509 -53.0625 32.0625 C-48.97130189 29.12681031 -44.876859 26.19805181 -40.75 23.3125 C-39.95980469 22.75949219 -39.16960938 22.20648437 -38.35546875 21.63671875 C-36.7591822 20.52752461 -35.15741589 19.42618275 -33.55078125 18.33203125 C-28.96406741 15.18541595 -24.63002837 11.89846184 -20.375 8.3125 C-14.32256346 3.31710871 -8.25854431 -1.68229606 0 0 Z " fill="#0C0B0B" transform="translate(997,723)"/>
<path d="M0 0 C0.99 0.495 0.99 0.495 2 1 C1.34 2.65 0.68 4.3 0 6 C0.99 6.33 1.98 6.66 3 7 C3 7.33 3 7.66 3 8 C1.02 8.66 -0.96 9.32 -3 10 C-3.7313107 22.91982235 0.83899067 30.91615106 8.6159668 40.89404297 C9.1912915 41.64057129 9.76661621 42.38709961 10.359375 43.15625 C10.89014648 43.82462891 11.42091797 44.49300781 11.96777344 45.18164062 C12.47872559 46.08172852 12.47872559 46.08172852 13 47 C12.67 47.99 12.34 48.98 12 50 C12.886875 50.2475 13.77375 50.495 14.6875 50.75 C18 52 18 52 20.125 54 C23.31651336 56.22018321 25.01309055 56.40782042 28.8125 56.875 C34.85699266 57.70229801 38.71047997 59.67748366 43 64 C45 67 45 67 45 70 C41.8775204 71.85861881 39.80400691 73.03495682 36.125 72.875 C28.30408783 70.68514459 23.17020744 67.83554562 16.6875 62.9375 C12.41462717 59.8570568 8.00682209 57.6689407 3 56 C3 55.34 3 54.68 3 54 C1.68 54 0.36 54 -1 54 C-1.4125 53.4225 -1.825 52.845 -2.25 52.25 C-4.82168272 48.94355079 -8.23340015 47.68199708 -12 46 C-12 45.01 -12 44.02 -12 43 C-12.61875 42.896875 -13.2375 42.79375 -13.875 42.6875 C-16 42 -16 42 -18 39 C-18 38.01 -18 37.02 -18 36 C-18.66 36 -19.32 36 -20 36 C-19.67 33.69 -19.34 31.38 -19 29 C-20.32 28.67 -21.64 28.34 -23 28 C-23 27.01 -23 26.02 -23 25 C-24.65 25 -26.3 25 -28 25 C-28.18175781 26.37671875 -28.18175781 26.37671875 -28.3671875 27.78125 C-28.53476562 29.0084375 -28.70234375 30.235625 -28.875 31.5 C-29.11863281 33.30984375 -29.11863281 33.30984375 -29.3671875 35.15625 C-29.81052528 37.84911655 -30.31446657 40.33281765 -31.0078125 42.953125 C-32.06729669 47.02912756 -32.57357989 51.06662998 -33 55.25 C-33.16607766 56.73849346 -33.33405917 58.22677569 -33.50390625 59.71484375 C-33.58656738 60.43913574 -33.66922852 61.16342773 -33.75439453 61.90966797 C-34.1039674 64.88485969 -34.49756605 67.84930849 -34.9375 70.8125 C-35.07027344 71.72644531 -35.20304688 72.64039063 -35.33984375 73.58203125 C-36.08385164 76.30712525 -37.29660569 77.77587894 -39 80 C-39.70276664 82.27391853 -39.70276664 82.27391853 -40.1875 84.6875 C-41.84963431 90.7015666 -45.3502047 94.91291878 -50 99 C-50.66 99 -51.32 99 -52 99 C-52.061875 99.9075 -52.12375 100.815 -52.1875 101.75 C-53 105 -53 105 -55.1875 107.375 C-58.41971069 109.24249951 -60.32823991 109.34155908 -64 109 C-64 107.68 -64 106.36 -64 105 C-64.66 105 -65.32 105 -66 105 C-66.97962798 101.08148809 -67.59073859 98.4881585 -66.08203125 94.6875 C-64.5599851 92.29997663 -63.28466815 90.68390129 -61 89 C-57.56170148 88.34605912 -54.4524079 88.50874828 -51 89 C-50.71125 87.948125 -50.4225 86.89625 -50.125 85.8125 C-49 82 -49 82 -48.02734375 79.73828125 C-46.75647422 76.35090658 -46.0917847 72.91990759 -45.4375 69.375 C-44.1133592 62.34007761 -44.1133592 62.34007761 -43 59 C-42.70052739 56.39625201 -42.49325474 53.79188871 -42.28125 51.1796875 C-42 49 -42 49 -41 48 C-40.67052479 46.23581004 -40.38750901 44.46288986 -40.125 42.6875 C-39.12078064 36.35026724 -37.6481986 30.19722674 -36 24 C-35.34 24 -34.68 24 -34 24 C-33.67 20.04 -33.34 16.08 -33 12 C-30.69 12 -28.38 12 -26 12 C-26 12.99 -26 13.98 -26 15 C-25.01 15 -24.02 15 -23 15 C-23 14.34 -23 13.68 -23 13 C-19.69883226 9.21336642 -16.56472575 7.03955831 -12 5 C-11.319375 4.62875 -10.63875 4.2575 -9.9375 3.875 C-8 3 -8 3 -5.4375 2.5 C-2.75639074 2.10928673 -2.75639074 2.10928673 0 0 Z " fill="#0B0A0A" transform="translate(555,766)"/>
<path d="M0 0 C0 1.32 0 2.64 0 4 C0.99 4 1.98 4 3 4 C3 4.66 3 5.32 3 6 C2.34 6 1.68 6 1 6 C0.86658203 6.93005859 0.86658203 6.93005859 0.73046875 7.87890625 C0 10 0 10 -1.63671875 11.08984375 C-2.31347656 11.36957031 -2.99023438 11.64929688 -3.6875 11.9375 C-6.67064922 13.28575605 -8.48265083 14.40385069 -11.0625 16.5625 C-14.99685649 19.82717879 -18.7522113 22 -24 22 C-23.938125 22.680625 -23.87625 23.36125 -23.8125 24.0625 C-24.00729816 27.11433788 -24.87265609 29.2285986 -26.13671875 31.984375 C-28.902112 38.44113028 -30.35490807 45.03300716 -31 52 C-31.66 52 -32.32 52 -33 52 C-33.09087891 53.39025391 -33.09087891 53.39025391 -33.18359375 54.80859375 C-33.26738281 56.00613281 -33.35117187 57.20367188 -33.4375 58.4375 C-33.51871094 59.63246094 -33.59992187 60.82742188 -33.68359375 62.05859375 C-34 65 -34 65 -35 66 C-35.1584265 68.0708472 -35.25124422 70.14678029 -35.31640625 72.22265625 C-35.37924805 74.11274414 -35.37924805 74.11274414 -35.44335938 76.04101562 C-35.48317596 77.38150736 -35.52288814 78.7220022 -35.5625 80.0625 C-35.60568042 81.40691523 -35.64929456 82.7513166 -35.69335938 84.09570312 C-35.79985283 87.39700013 -35.9004675 90.69848579 -36 94 C-31.71 94 -27.42 94 -23 94 C-22.67 95.32 -22.34 96.64 -22 98 C-26.29467535 101.63395607 -30.68813029 105.11313222 -35.14453125 108.546875 C-36.90781993 109.86758114 -36.90781993 109.86758114 -38 111 C-39.52091011 111.28458862 -41.0522089 111.51421433 -42.5859375 111.71875 C-43.51664063 111.84636719 -44.44734375 111.97398437 -45.40625 112.10546875 C-46.3859375 112.23566406 -47.365625 112.36585938 -48.375 112.5 C-50.29982677 112.75783488 -52.22432388 113.01814607 -54.1484375 113.28125 C-55.00614746 113.39533203 -55.86385742 113.50941406 -56.74755859 113.62695312 C-59.15896968 113.96578454 -59.15896968 113.96578454 -62 115 C-63.72795352 115.06802967 -65.45835365 115.08495645 -67.1875 115.0625 C-68.53908203 115.04896484 -68.53908203 115.04896484 -69.91796875 115.03515625 C-70.60503906 115.02355469 -71.29210937 115.01195312 -72 115 C-72.495 112.525 -72.495 112.525 -73 110 C-65.70806556 103.15304581 -59.84663054 99.70188676 -50 98 C-48.515 97.505 -48.515 97.505 -47 97 C-47.00523682 96.38068604 -47.01047363 95.76137207 -47.01586914 95.12329102 C-47.03688073 92.26970467 -47.04973614 89.41613469 -47.0625 86.5625 C-47.07087891 85.58861328 -47.07925781 84.61472656 -47.08789062 83.61132812 C-47.10779137 77.66100417 -46.79017163 71.89578152 -46 66 C-45.855625 64.741875 -45.71125 63.48375 -45.5625 62.1875 C-45.06395045 59.36238588 -44.46214715 57.43691192 -43 55 C-43.66 55 -44.32 55 -45 55 C-44.67 53.35 -44.34 51.7 -44 50 C-44.66 50 -45.32 50 -46 50 C-45.34 45.05 -44.68 40.1 -44 35 C-43.34 35 -42.68 35 -42 35 C-42 33.35 -42 31.7 -42 30 C-41.34 30 -40.68 30 -40 30 C-40.2475 28.329375 -40.2475 28.329375 -40.5 26.625 C-41 23 -41 23 -41 21 C-42.29409592 21.45142881 -43.58521059 21.91141021 -44.875 22.375 C-45.59429688 22.63023437 -46.31359375 22.88546875 -47.0546875 23.1484375 C-49.18157994 23.93877783 -49.18157994 23.93877783 -51 26 C-53.625 25.625 -53.625 25.625 -56 25 C-56.875 21.8125 -56.875 21.8125 -57 18 C-53.38525917 14.00476014 -48.89642054 11.63501479 -44.15234375 9.140625 C-41.82900688 7.94646246 -41.82900688 7.94646246 -39.0625 6.125 C-35.33017502 4.75394184 -32.99720807 5.19957487 -29.12109375 5.71875 C-25.13573475 6.07788122 -21.2448186 6.0303469 -17.25 5.875 C-16.52901123 5.8651709 -15.80802246 5.8553418 -15.06518555 5.84521484 C-8.73252845 5.53630474 -5.4805727 0 0 0 Z " fill="#0B0A0A" transform="translate(682,729)"/>
<path d="M0 0 C1.90625 0.28125 1.90625 0.28125 4 1 C5.5 4.5 5.5 4.5 6.21484375 6.69140625 C7.01299291 9.03820303 7.99721363 11.20079171 9.0625 13.4375 C10.82722254 17.31045976 11.82958191 21.07326335 12.60546875 25.25 C12.84042152 27.01851573 12.84042152 27.01851573 14 28 C14.30529612 31.09464993 14.27834765 34.20463583 14.3125 37.3125 C14.34150391 38.18068359 14.37050781 39.04886719 14.40039062 39.94335938 C14.46423723 46.34275385 14.46423723 46.34275385 12.21484375 49.52734375 C9.2940263 51.46940403 6.39734835 52.21599653 3 53 C3 53.66 3 54.32 3 55 C3.721875 54.79375 4.44375 54.5875 5.1875 54.375 C8.44641585 53.94047789 10.08304504 54.58319331 13 56 C12.92535387 59.65766046 12.87427445 61.95716364 10.48046875 64.8125 C9.23504684 65.98712951 7.97827531 67.1498316 6.7109375 68.30078125 C4.43340875 70.56271049 3.31832733 73.09967988 2 76 C0.36205289 77.99402257 -0.78563762 78.89912359 -3.125 80 C-5.3530435 80.91202978 -5.3530435 80.91202978 -6 84 C-8.59965989 86.07972792 -10.80256685 86.12507857 -14 85.875 C-16.81307152 85.4200981 -17.99173436 85.00587296 -20.375 83.3125 C-22.25071697 80.64321047 -23.09830863 78.12123935 -24 75 C-24.33 74.67 -24.66 74.34 -25 74 C-25.59522332 65.3120289 -25.06218086 56.88526615 -23.625 48.3125 C-23.49899414 47.55912354 -23.37298828 46.80574707 -23.24316406 46.02954102 C-22.54403181 42.16208435 -21.76675993 38.5267765 -20 35 C-19.01 34.505 -19.01 34.505 -18 34 C-17.01085223 31.36227261 -16.20068694 28.6936495 -15.41796875 25.98828125 C-12.32741127 15.92137766 -7.31769304 7.55584281 0 0 Z " fill="#F7F7F7" transform="translate(721,747)"/>
<path d="M0 0 C2.91227269 3.28804981 4.49701212 5.59885603 5 10 C5.66 9.01 6.32 8.02 7 7 C6.51096756 13.53759154 5.74562264 19.94822163 4.59765625 26.40234375 C4.11811932 29.28896803 3.69728757 32.16697488 3.30859375 35.06640625 C3.18532715 35.96109619 3.06206055 36.85578613 2.93505859 37.77758789 C2.690333 39.56588086 2.45469136 41.35544501 2.22900391 43.14624023 C1.60018078 47.65456 1.05318544 50.48641358 -2 54 C-2.70276664 56.27391853 -2.70276664 56.27391853 -3.1875 58.6875 C-4.84963431 64.7015666 -8.3502047 68.91291878 -13 73 C-13.66 73 -14.32 73 -15 73 C-15.061875 73.9075 -15.12375 74.815 -15.1875 75.75 C-16 79 -16 79 -18.1875 81.375 C-21.41971069 83.24249951 -23.32823991 83.34155908 -27 83 C-27 81.68 -27 80.36 -27 79 C-27.66 79 -28.32 79 -29 79 C-29.97962798 75.08148809 -30.59073859 72.4881585 -29.08203125 68.6875 C-27.5599851 66.29997663 -26.28466815 64.68390129 -24 63 C-20.56170148 62.34605912 -17.4524079 62.50874828 -14 63 C-13.71125 61.948125 -13.4225 60.89625 -13.125 59.8125 C-12 56 -12 56 -11.02734375 53.73828125 C-9.75647422 50.35090658 -9.0917847 46.91990759 -8.4375 43.375 C-7.1133592 36.34007761 -7.1133592 36.34007761 -6 33 C-5.70052739 30.39625201 -5.49325474 27.79188871 -5.28125 25.1796875 C-5 23 -5 23 -4 22 C-3.64615932 20.19511516 -3.34269203 18.38027472 -3.0625 16.5625 C-2.17800355 11.00945841 -1.14478456 5.50470872 0 0 Z " fill="#0B0B0B" transform="translate(518,792)"/>
<path d="M0 0 C0.88042969 0.06638672 1.76085937 0.13277344 2.66796875 0.20117188 C3.93060547 0.32395508 3.93060547 0.32395508 5.21875 0.44921875 C5.99154297 0.51842529 6.76433594 0.58763184 7.56054688 0.65893555 C9.5 1.3125 9.5 1.3125 10.76757812 3.36645508 C11.00927734 4.0086499 11.25097656 4.65084473 11.5 5.3125 C9.97005208 6.54947917 8.44010417 7.78645833 6.91015625 9.0234375 C5.36733563 10.2791391 5.36733563 10.2791391 4.5 12.3125 C2.90601399 13.26242155 1.2733148 14.14782592 -0.375 15 C-5.46514246 17.68076423 -10.1814243 20.69800382 -14.89453125 23.9921875 C-17.97498529 25.55319719 -20.09321023 25.44685227 -23.5 25.3125 C-25.10411246 26.66655861 -25.10411246 26.66655861 -26.5 28.3125 C-27.28375 28.60125 -28.0675 28.89 -28.875 29.1875 C-32.17494195 30.60176084 -34.01656563 32.76194578 -36.5 35.3125 C-37.16 35.3125 -37.82 35.3125 -38.5 35.3125 C-38.10085682 31.40089681 -37.50192684 28.31697028 -35.9375 24.6875 C-34.31631466 21.49263587 -34.31631466 21.49263587 -34.5 18.5 C-34.5 17.778125 -34.5 17.05625 -34.5 16.3125 C-33.51 15.6525 -32.52 14.9925 -31.5 14.3125 C-29.61660114 10.43491412 -28.69679445 6.50128056 -27.5 2.3125 C-22.22 2.3125 -16.94 2.3125 -11.5 2.3125 C-11.5 1.6525 -11.5 0.9925 -11.5 0.3125 C-7.93810459 -1.4684477 -3.8748954 -0.37727752 0 0 Z " fill="#F5F5F5" transform="translate(568.5,744.6875)"/>
<path d="M0 0 C1.7290774 -0.02725341 3.45828176 -0.04650987 5.1875 -0.0625 C6.15042969 -0.07410156 7.11335938 -0.08570313 8.10546875 -0.09765625 C10.85576513 -0.00486622 13.32479591 0.37888315 16 1 C17.29384979 5.48134729 16.61333104 8.81494316 15.5625 13.3125 C15.13130859 15.19388672 15.13130859 15.19388672 14.69140625 17.11328125 C14.46324219 18.06589844 14.23507812 19.01851562 14 20 C13.34 20 12.68 20 12 20 C11.9175 21.299375 11.835 22.59875 11.75 23.9375 C11.26358924 28.3220477 10.01862128 31.73057349 8.09765625 35.67578125 C6.94490878 38.11665223 6.04254874 40.58734429 5.125 43.125 C3.49174929 47.27885811 1.48833966 50.191837 -1.58203125 53.40625 C-3.24185256 55.14044328 -3.24185256 55.14044328 -4.6875 58.25 C-8.22027016 62.45113208 -12.70914243 63.14445707 -18 64 C-19.66615885 64.04113972 -21.33422195 64.05441743 -23 64 C-23.125 61.625 -23.125 61.625 -23 59 C-22.34 58.34 -21.68 57.68 -21 57 C-20.896875 56.01 -20.79375 55.02 -20.6875 54 C-20.460625 53.01 -20.23375 52.02 -20 51 C-18.35764093 50.27551472 -16.68510464 49.61858272 -15 49 C-13.25834288 47.94918256 -11.54954325 46.84226912 -9.875 45.6875 C-9.02679687 45.11386719 -8.17859375 44.54023437 -7.3046875 43.94921875 C-0.09814647 37.85419507 2.27903114 26.89167242 4 18 C4.66 18 5.32 18 6 18 C6.04898437 17.26394531 6.09796875 16.52789063 6.1484375 15.76953125 C6.22320313 14.79371094 6.29796875 13.81789063 6.375 12.8125 C6.44460938 11.84957031 6.51421875 10.88664063 6.5859375 9.89453125 C7.00215853 6.98491062 7.79874096 4.67109226 9 2 C6.03 1.67 3.06 1.34 0 1 C0 0.67 0 0.34 0 0 Z " fill="#0F0F0F" transform="translate(1090,792)"/>
<path d="M0 0 C1.2065625 0.0309375 1.2065625 0.0309375 2.4375 0.0625 C3.72930669 3.71822506 3.16566102 6.3440796 2.25 10.0625 C2.00894531 11.09375 1.76789063 12.125 1.51953125 13.1875 C0.32483656 16.36185123 -1.08552894 17.80481812 -3.5625 20.0625 C-3.85125 20.825625 -4.14 21.58875 -4.4375 22.375 C-7.28442403 29.17598518 -13.6852215 34.7907067 -19.94921875 38.4609375 C-22.62326309 40.09973896 -24.91265485 41.92194378 -27.3125 43.9375 C-38.59248155 53.0625 -38.59248155 53.0625 -45.5625 53.0625 C-43.76744336 44.98474511 -43.76744336 44.98474511 -40.53125 42.5078125 C-39.7165625 42.07210937 -38.901875 41.63640625 -38.0625 41.1875 C-27.66661079 35.33511085 -19.414764 29.32041 -12.9921875 19.1484375 C-11.5625 17.0625 -11.5625 17.0625 -9.91015625 15.42578125 C-8.36377247 14.11137234 -8.36377247 14.11137234 -8.125 11.875 C-7.21864795 7.34323973 -5.20939702 0.12705846 0 0 Z " fill="#101010" transform="translate(1359.5625,853.9375)"/>
<path d="M0 0 C0.99 0.66 1.98 1.32 3 2 C3 3.32 3 4.64 3 6 C2.34 6.66 1.68 7.32 1 8 C2.0209375 8.7425 2.0209375 8.7425 3.0625 9.5 C5 12 5 12 5.125 15.375 C3.34550336 24.89530702 -1.1918111 33.84817771 -7.484375 41.1328125 C-9.07328926 42.942474 -9.07328926 42.942474 -10.015625 45.1171875 C-11 47 -11 47 -14 49 C-16.04296875 49.4140625 -16.04296875 49.4140625 -18.1875 49.625 C-19.445625 49.74875 -20.70375 49.8725 -22 50 C-22 50.66 -22 51.32 -22 52 C-23.98 52 -25.96 52 -28 52 C-28.625 49.625 -28.625 49.625 -29 47 C-28.34 46.34 -27.68 45.68 -27 45 C-26.79375 43.88625 -26.5875 42.7725 -26.375 41.625 C-24.89903698 37.73382477 -24.7946621 37.52762027 -21.3125 35.9375 C-20.60222656 35.63070312 -19.89195312 35.32390625 -19.16015625 35.0078125 C-12.67228948 31.98092348 -9.38615324 27.65077016 -6.83984375 21.09375 C-6 19 -6 19 -4.3125 16.4375 C-2.45295287 12.98405532 -2.3302055 9.89642495 -2 6 C-1.34 6 -0.68 6 0 6 C0 4.02 0 2.04 0 0 Z " fill="#131313" transform="translate(293,805)"/>
<path d="M0 0 C1 1 1 1 1.0625 3.5625 C1.041875 4.366875 1.02125 5.17125 1 6 C-0.98 6.99 -0.98 6.99 -3 8 C-2.67 8.99 -2.34 9.98 -2 11 C1.31248187 11.02888146 4.62493167 11.04675799 7.9375 11.0625 C8.88302734 11.07087891 9.82855469 11.07925781 10.80273438 11.08789062 C11.70185547 11.09111328 12.60097656 11.09433594 13.52734375 11.09765625 C14.35999756 11.10289307 15.19265137 11.10812988 16.05053711 11.11352539 C18.00516798 11.21643292 18.00516798 11.21643292 19 10 C21.52596259 9.76346477 24.03107207 9.57826308 26.5625 9.4375 C27.27341797 9.39431641 27.98433594 9.35113281 28.71679688 9.30664062 C30.47761912 9.20028223 32.2387832 9.09961154 34 9 C33.34 9.99 32.68 10.98 32 12 C32.66 12.66 33.32 13.32 34 14 C33.01 14 32.02 14 31 14 C30.67 14.99 30.34 15.98 30 17 C18.00711457 18.72523352 6.10177069 19.5288245 -6 20 C-6 19.34 -6 18.68 -6 18 C-7.5778125 18.1546875 -7.5778125 18.1546875 -9.1875 18.3125 C-13 18 -13 18 -15.9375 15.875 C-18 13 -18 13 -18.875 10.125 C-17.64301881 5.72506717 -15.24313523 3.97445863 -11.59765625 1.3515625 C-7.72696905 -0.66235896 -4.25114537 -0.83504641 0 0 Z " fill="#121212" transform="translate(926,825)"/>
<path d="M0 0 C0.66 0.66 1.32 1.32 2 2 C2.33 1.34 2.66 0.68 3 0 C3.66 0 4.32 0 5 0 C6.26762338 5.69906708 7.31889292 10.73065824 6.296875 16.55859375 C5.8641084 20.11752964 5.87740053 23.67041188 5.875 27.25 C5.87064941 27.94826904 5.86629883 28.64653809 5.86181641 29.3659668 C5.87071139 32.71897249 5.95922815 35.79508352 7 39 C6.01 38.34 5.02 37.68 4 37 C2.64381501 38.12534105 2.64381501 38.12534105 2.9375 41.0625 C2.958125 42.031875 2.97875 43.00125 3 44 C-3.6595534 36.1296187 -2.34357371 26.56176701 -1.5625 16.89453125 C-1.37993334 14.86673729 -1.19241737 12.83938295 -1 10.8125 C-0.90460937 9.76513672 -0.80921875 8.71777344 -0.7109375 7.63867188 C-0.47836539 5.09200731 -0.24133075 2.54584685 0 0 Z " fill="#131313" transform="translate(691,786)"/>
<path d="M0 0 C2.91227269 3.28804981 4.49701212 5.59885603 5 10 C5.66 9.01 6.32 8.02 7 7 C6.41993763 14.75451806 5.37559416 22.34742277 4 30 C3.67 30 3.34 30 3 30 C2.67 27.69 2.34 25.38 2 23 C0.68 22.67 -0.64 22.34 -2 22 C-1.938125 22.70125 -1.87625 23.4025 -1.8125 24.125 C-2.04256101 27.65260212 -3.29200568 29.93984351 -5 33 C-6.23825459 29.28523623 -5.70587257 26.81171187 -5 23 C-4.67 22.67 -4.34 22.34 -4 22 C-3.64615932 20.19511516 -3.34269203 18.38027472 -3.0625 16.5625 C-2.17800355 11.00945841 -1.14478456 5.50470872 0 0 Z " fill="#282727" transform="translate(518,792)"/>
<path d="M0 0 C0.66 0.33 1.32 0.66 2 1 C2 1.66 2 2.32 2 3 C1.34 3 0.68 3 0 3 C0.33 4.65 0.66 6.3 1 8 C-4.75 11.875 -4.75 11.875 -7 13 C-7 12.34 -7 11.68 -7 11 C-7.66 11 -8.32 11 -9 11 C-9.33 10.34 -9.66 9.68 -10 9 C-11.98 9.99 -11.98 9.99 -14 11 C-9.85989729 6.45924219 -5.17609824 3.28157862 0 0 Z " fill="#111111" transform="translate(941,757)"/>
<path d="M0 0 C2.91227269 3.28804981 4.49701212 5.59885603 5 10 C5.66 9.01 6.32 8.02 7 7 C6.88570603 8.77155654 6.75816963 10.54226229 6.625 12.3125 C6.55539062 13.29863281 6.48578125 14.28476562 6.4140625 15.30078125 C6 18 6 18 4 21 C4 18.69 4 16.38 4 14 C3.34 14 2.68 14 2 14 C-0.19290886 11.77062948 -0.98321474 10.58306697 -1.07421875 7.421875 C-0.94660156 6.54015625 -0.81898438 5.6584375 -0.6875 4.75 C-0.56761719 3.85796875 -0.44773437 2.9659375 -0.32421875 2.046875 C-0.21722656 1.37140625 -0.11023438 0.6959375 0 0 Z " fill="#302F30" transform="translate(518,792)"/>
<path d="M0 0 C1.98883388 1.48373321 3.95449281 2.99032986 5.90234375 4.52734375 C2.29854643 5.72860952 1.59966767 5.24392366 -1.78515625 3.77734375 C-2.66300781 3.40609375 -3.54085938 3.03484375 -4.4453125 2.65234375 C-5.32058594 2.28109375 -6.19585938 1.90984375 -7.09765625 1.52734375 C-9.75593416 0.50328806 -12.42621334 -0.48323295 -15.09765625 -1.47265625 C-14.47761719 -1.62347656 -13.85757812 -1.77429688 -13.21875 -1.9296875 C-11.1096216 -2.43559705 -11.1096216 -2.43559705 -9.16015625 -3.16015625 C-5.43251613 -3.72495021 -2.99914598 -2.10554569 0 0 Z " fill="#2C2C2C" transform="translate(1106.09765625,350.47265625)"/>
<path d="M0 0 C1 1 1 1 1.0625 3.5625 C1.041875 4.366875 1.02125 5.17125 1 6 C-0.98 6.99 -0.98 6.99 -3 8 C-3.33 7.01 -3.66 6.02 -4 5 C-3.67 4.34 -3.34 3.68 -3 3 C-5.3015411 2.22197813 -5.3015411 2.22197813 -8 2 C-10.30504044 3.33153266 -10.30504044 3.33153266 -12 5 C-12.66 4.67 -13.32 4.34 -14 4 C-9.68543691 -0.45374255 -5.89920412 -0.74349473 0 0 Z " fill="#282727" transform="translate(926,825)"/>
<path d="M0 0 C1.32 0.33 2.64 0.66 4 1 C3.67 1.66 3.34 2.32 3 3 C3.99 3.66 4.98 4.32 6 5 C5.34 5 4.68 5 4 5 C3.67 5.99 3.34 6.98 3 8 C1.02 8.33 -0.96 8.66 -3 9 C-2.30058404 5.85262818 -1.23921302 2.97411124 0 0 Z " fill="#0A090A" transform="translate(1317,898)"/>
<path d="M0 0 C0.33 1.32 0.66 2.64 1 4 C0.34 4 -0.32 4 -1 4 C-1.33 4.66 -1.66 5.32 -2 6 C-3.0828125 5.7525 -3.0828125 5.7525 -4.1875 5.5 C-6.86427545 5.02412881 -9.28949487 4.922557 -12 5 C-9.82600171 0.65200343 -4.43891837 0 0 0 Z " fill="#363636" transform="translate(883,753)"/>
<path d="M0 0 C0.66 0.33 1.32 0.66 2 1 C-0.94317951 4.06090669 -4.08158415 6.79815947 -7.31640625 9.5390625 C-9.3089055 11.26805257 -11.17191285 13.09878937 -13 15 C-13.66 14.67 -14.32 14.34 -15 14 C-13.25311063 12.22600373 -11.50266549 10.45577447 -9.75 8.6875 C-9.25886719 8.18798828 -8.76773438 7.68847656 -8.26171875 7.17382812 C-5.64859804 4.54328661 -3.04342089 2.12314838 0 0 Z " fill="#1C1C1C" transform="translate(902,231)"/>
<path d="M0 0 C0.66 1.32 1.32 2.64 2 4 C2.66 3.67 3.32 3.34 4 3 C5.25664978 5.90600261 6 7.79604584 6 11 C6.66 11.33 7.32 11.66 8 12 C7.01 12 6.02 12 5 12 C4.67 11.34 4.34 10.68 4 10 C1.47266765 9.34444881 1.47266765 9.34444881 -1 9 C-0.67 6.03 -0.34 3.06 0 0 Z " fill="#242424" transform="translate(524,769)"/>
<path d="M0 0 C0.66 0.33 1.32 0.66 2 1 C2 1.66 2 2.32 2 3 C1.34 3 0.68 3 0 3 C-0.33 3.66 -0.66 4.32 -1 5 C-2.92578125 6 -2.92578125 6 -5.3125 7 C-8.26152892 8.24785356 -11.14975507 9.53900489 -14 11 C-9.85989729 6.45924219 -5.17609824 3.28157862 0 0 Z " fill="#2A2A2A" transform="translate(941,757)"/>
<path d="M0 0 C0.66 0 1.32 0 2 0 C0.74615087 3.76154738 -1.14200302 5.27191198 -4 8 C-4.928125 8.928125 -5.85625 9.85625 -6.8125 10.8125 C-7.534375 11.534375 -8.25625 12.25625 -9 13 C-9.66 12.67 -10.32 12.34 -11 12 C-9.21479439 9.99388266 -7.42241288 7.9951283 -5.625 6 C-5.11710937 5.42765625 -4.60921875 4.8553125 -4.0859375 4.265625 C-2.76495095 2.80558723 -1.38599201 1.39847843 0 0 Z " fill="#DADADA" transform="translate(1359,762)"/>
<path d="M0 0 C1.2065625 0.0309375 1.2065625 0.0309375 2.4375 0.0625 C2.4375 1.7125 2.4375 3.3625 2.4375 5.0625 C1.4475 5.3925 0.4575 5.7225 -0.5625 6.0625 C-2.5625 5.0625 -2.5625 5.0625 -3.25 3.0625 C-3.353125 2.4025 -3.45625 1.7425 -3.5625 1.0625 C-2.5625 0.0625 -2.5625 0.0625 0 0 Z " fill="#E5E5E6" transform="translate(1307.5625,750.9375)"/>
<path d="M0 0 C0.33 0 0.66 0 1 0 C1.05447047 1.41623216 1.09300508 2.83308191 1.125 4.25 C1.14820313 5.03890625 1.17140625 5.8278125 1.1953125 6.640625 C0.9828378 9.20731941 0.28654105 10.7916067 -1 13 C-1.33 12.67 -1.66 12.34 -2 12 C-1.93607199 10.16352258 -1.79944271 8.32929108 -1.625 6.5 C-1.53476562 5.4996875 -1.44453125 4.499375 -1.3515625 3.46875 C-1 1 -1 1 0 0 Z " fill="#040403" transform="translate(520,814)"/>
<path d="M0 0 C3.96 0 7.92 0 12 0 C12.33 1.32 12.66 2.64 13 4 C12.01 4 11.02 4 10 4 C9.34 3.34 8.68 2.68 8 2 C5.34462628 1.43479997 2.70855287 1.26211802 0 1 C0 0.67 0 0.34 0 0 Z " fill="#1B1A1B" transform="translate(647,823)"/>
<path d="M0 0 C-0.66 1.98 -1.32 3.96 -2 6 C-2.4125 5.54625 -2.825 5.0925 -3.25 4.625 C-5.06408095 2.94049626 -6.75285627 2.00734029 -9 1 C-5.8035914 -0.06546953 -3.34252724 -0.07427838 0 0 Z " fill="#DCDCDC" transform="translate(805,511)"/>
<path d="M0 0 C0.91307373 3.08162384 1.41112802 5.79320141 1 9 C-1.01953125 10.65234375 -1.01953125 10.65234375 -3 12 C-2.69106068 10.3743193 -2.3777305 8.74947252 -2.0625 7.125 C-1.88847656 6.22007812 -1.71445313 5.31515625 -1.53515625 4.3828125 C-1 2 -1 2 0 0 Z " fill="#C8C8C8" transform="translate(1321,761)"/>
<path d="M0 0 C1.2065625 0.0309375 1.2065625 0.0309375 2.4375 0.0625 C2.7675 1.3825 3.0975 2.7025 3.4375 4.0625 C2.48875 3.85625 1.54 3.65 0.5625 3.4375 C-0.46875 3.31375 -1.5 3.19 -2.5625 3.0625 C-3.2225 3.7225 -3.8825 4.3825 -4.5625 5.0625 C-3.43829114 0.08386076 -3.43829114 0.08386076 0 0 Z " fill="#191919" transform="translate(1359.5625,853.9375)"/>
<path d="M0 0 C0.66 -0.33 1.32 -0.66 2 -1 C2 -0.01 2 0.98 2 2 C-1.63 2 -5.26 2 -9 2 C-5.85541721 -1.14458279 -4.02286275 -1.03815813 0 0 Z " fill="#B9B8B9" transform="translate(1250,831)"/>
<path d="M0 0 C0.66 0.33 1.32 0.66 2 1 C1.38125 1.7425 0.7625 2.485 0.125 3.25 C-1.60437281 5.48801188 -2.86106661 7.43739987 -4 10 C-4.66 10 -5.32 10 -6 10 C-4.79157144 5.56909529 -3.48331435 3.01887244 0 0 Z " fill="#D5D5D5" transform="translate(415,755)"/>
<path d="M0 0 C-0.33 0.66 -0.66 1.32 -1 2 C-2.75 2.5625 -2.75 2.5625 -5 3 C-5.9075 3.185625 -6.815 3.37125 -7.75 3.5625 C-8.4925 3.706875 -9.235 3.85125 -10 4 C-4.75 -1.425 -4.75 -1.425 0 0 Z " fill="#DFDEDF" transform="translate(998,332)"/>
<path d="M0 0 C0.66 0 1.32 0 2 0 C0.125 5.875 0.125 5.875 -1 7 C-0.34 7.66 0.32 8.32 1 9 C-0.32 9 -1.64 9 -3 9 C-2.30058404 5.85262818 -1.23921302 2.97411124 0 0 Z " fill="#323232" transform="translate(1317,898)"/>
<path d="M0 0 C0.66 0.33 1.32 0.66 2 1 C2.625 3.0625 2.625 3.0625 3 5 C2.01 5 1.02 5 0 5 C-1.33981486 5.3062434 -2.67511887 5.63451555 -4 6 C-2.25 1.125 -2.25 1.125 0 0 Z " fill="#181718" transform="translate(510,844)"/>
<path d="M0 0 C0.66 0 1.32 0 2 0 C2.33 0.99 2.66 1.98 3 3 C-0.75 6 -0.75 6 -3 6 C-2.42655063 3.13275314 -2.1385485 2.1385485 0 0 Z " fill="#E7E7E8" transform="translate(1318,787)"/>
<path d="M0 0 C0.8353125 0.37125 0.8353125 0.37125 1.6875 0.75 C1.6875 1.41 1.6875 2.07 1.6875 2.75 C-2.92788462 4.28846154 -2.92788462 4.28846154 -5.3125 4.75 C-5.9725 4.42 -6.6325 4.09 -7.3125 3.75 C-2.88173077 -0.31153846 -2.88173077 -0.31153846 0 0 Z " fill="#171617" transform="translate(1340.3125,774.25)"/>
<path d="M0 0 C0.66 0.33 1.32 0.66 2 1 C1.67 2.65 1.34 4.3 1 6 C-0.65 6.33 -2.3 6.66 -4 7 C-4 5.35 -4 3.7 -4 2 C-2.125 0.9375 -2.125 0.9375 0 0 Z " fill="#232223" transform="translate(379,761)"/>
<path d="M0 0 C0.625 1.8125 0.625 1.8125 1 4 C-1.40436026 7.60654039 -2.94679607 7.85452932 -7 9 C-4.375 4.125 -4.375 4.125 -1 3 C-0.67 2.01 -0.34 1.02 0 0 Z " fill="#2A2929" transform="translate(1359,752)"/>
<path d="M0 0 C0.66 0.33 1.32 0.66 2 1 C1.38125 1.2475 0.7625 1.495 0.125 1.75 C-2.35068687 3.20628639 -2.95125002 4.37812506 -4 7 C-5.32 6.67 -6.64 6.34 -8 6 C-5.36 4.02 -2.72 2.04 0 0 Z " fill="#252525" transform="translate(983,320)"/>
<path d="M0 0 C0 0.33 0 0.66 0 1 C-1.98 1 -3.96 1 -6 1 C-6.33 1.99 -6.66 2.98 -7 4 C-7.99 4 -8.98 4 -10 4 C-10 3.01 -10 2.02 -10 1 C-6.78548731 -0.60725635 -3.56387464 -0.05748185 0 0 Z " fill="#D2D2D2" transform="translate(317,790)"/>
<path d="M0 0 C1.32 0.33 2.64 0.66 4 1 C4 2.32 4 3.64 4 5 C3.01 5.33 2.02 5.66 1 6 C0 5 0 5 -0.0625 2.4375 C-0.041875 1.633125 -0.02125 0.82875 0 0 Z " fill="#282727" transform="translate(726,750)"/>
<path d="M0 0 C0.33 0.99 0.66 1.98 1 3 C-0.65 3.33 -2.3 3.66 -4 4 C-4 3.34 -4 2.68 -4 2 C-4.66 1.67 -5.32 1.34 -6 1 C-4 0 -4 0 0 0 Z " fill="#252425" transform="translate(1140,793)"/>
<path d="M0 0 C0.66 0.33 1.32 0.66 2 1 C-0.31 3.31 -2.62 5.62 -5 8 C-5.66 7.34 -6.32 6.68 -7 6 C-4.69 4.02 -2.38 2.04 0 0 Z " fill="#CCCCCC" transform="translate(1339,891)"/>
<path d="M0 0 C1.98 0.495 1.98 0.495 4 1 C4 2.32 4 3.64 4 5 C1.525 4.01 1.525 4.01 -1 3 C-0.67 2.01 -0.34 1.02 0 0 Z " fill="#272627" transform="translate(1100,807)"/>
<path d="M0 0 C1.0326802 2.78823655 1.04509293 3.8677274 0.0625 6.75 C-0.288125 7.4925 -0.63875 8.235 -1 9 C-1.99 9 -2.98 9 -4 9 C-4 8.34 -4 7.68 -4 7 C-3.34 6.67 -2.68 6.34 -2 6 C-1.27306096 4.02111039 -0.60183749 2.02045442 0 0 Z " fill="#CECECE" transform="translate(705,775)"/>
<path d="M0 0 C1.67542976 0.28604898 3.34385343 0.61781233 5 1 C5 1.99 5 2.98 5 4 C4.01 4.33 3.02 4.66 2 5 C1.01 3.68 0.02 2.36 -1 1 C-0.67 0.67 -0.34 0.34 0 0 Z " fill="#2B2B2B" transform="translate(466,753)"/>
<path d="M0 0 C0.625 1.8125 0.625 1.8125 1 4 C0.01 5.485 0.01 5.485 -1 7 C-1.33 5.35 -1.66 3.7 -2 2 C-3.32 1.67 -4.64 1.34 -6 1 C-4 0 -4 0 0 0 Z " fill="#B5B5B6" transform="translate(641,750)"/>
</svg>
